<svg id="Layer_1" data-name="Layer 1" xmlns="http://www.w3.org/2000/svg" viewBox="0 0 316.51 312.9"><defs><style>.cls-1{fill:#5a02b7;}.cls-2{fill:#dd227f;}</style></defs><title>experts-violet-leaf</title><path class="cls-1" d="M800,361.44a17,17,0,0,0-5.38.57c-11.29,3.12-13.88,15.53-13.8,25.84.09,12.3,7.83,22.83,6.81,35.06-.55,6.49,2.29,23.1-.73,28.78-10.23-7.64-26.06-23.39-27.24-35.67-2.43-25.3,16.59-69.68,4.8-93.5-8.22-16.61-32.93-27.94-40.76-6.86-5.64,15.17-.87,34-.12,49.69a74.44,74.44,0,0,1-.06,11.47,12.39,12.39,0,0,1-.62,3l-.06.2c-.46.25-1.16.69-1.34.74a15.35,15.35,0,0,1-2.37.63,4.73,4.73,0,0,1-2.5-.26,11.1,11.1,0,0,1-4.88-4.27c-10.37-15.75-12-37.75-14.12-56-.94-8.08-1.59-16.2-2.68-24.26-1.19-8.77-6.07-17.27-12.31-23.5-7.1-7.08-11.37-9.82-25.69-1.48-5.56,3.23-13.37,7.16-2.66,34.87,5.41,14,1.55,26.08-.94,23.56-10.74-10.93-.22,7.4-20.39-46.59-.49-1.31-1.37-5.06-9.75-23.26-12.83-22.3-22.1-39.12-39.37-30.73-9.6,4.67-5.47,16,5.66,36.12,2.22,4-19-14.92-22.77-17.13-23.57-13.68-41.77-14.08-51.4-14.29-10.39-.23-26,1.24-30.67,12.79-5.51,13.56,9.64,22.69,19.44,26.95,14.09,6.13,6.4,3.88,34.5,10.73,6.59,1.61,33.17,16.92,33.25,17s-14.9-3.49-30.3-2c-19.82,1.95-18.14,12.34-14.41,23.4,4.61,13.67,20,16.88,32.69,18.14,8.94.89,40.27-7.55,64.23,6.67C564.25,345,561.37,361.7,571.17,375c7.27,9.88,19.82,16.5,32.2,16.16,7.8-.22,15.65-2.61,23.44-3,9.92.82,14.39,3.84,17.87,4.67,3.85.91,24.59,7.59,20.33,14.46-3.74,6-16.16,5.53-22.26,5.86-18.06,1-38.69,5.57-34.45,23.56,6.7,28.37,23.46,23,45.19,18.36,46.3-9.9,65.89-3.93,75.17,4.15A90.75,90.75,0,0,0,685,468.38c-8.08,3.88-16.49,8.21-23.18,14.3-5.2,4.74-11.21,10.45-13.06,17.52-1.52,5.81-.65,12.12,4.31,16,3.94,3.11,8.67,4.07,13.5,4.06a32.54,32.54,0,0,0,20.65-2.92c6.07-3.07,11.76-7.33,18.68-8.18,13.63-1.69,35.26-4.54,46.75.93,20.92,10,32.43,28.33,47.32,30Z" transform="translate(-483.49 -227.26)"/><path class="cls-2" d="M800,479.22v-7.28c-3.69,11-9.4,19.54-16.64,23.89A385.17,385.17,0,0,0,761.42,464Q750,449.19,738.34,435.3l.08,0c-8.06-16.55-3.57-31.87.77-46.69,3.69-12.61,7.18-24.52,3.36-36.87l-2.42.75c3.58,11.62.2,23.18-3.38,35.41-3.88,13.24-7.85,26.86-3.33,41.6-16.22-19.07-32.56-36.81-48.44-53l.12-.06a5.75,5.75,0,0,0-.72-1.15l.07,0c-7.53-13.66-7.06-27.33-6.56-41.79a163.43,163.43,0,0,0-.27-22.19l-2.53.26a159.75,159.75,0,0,1,.26,21.84c-.44,12.95-.86,25.28,4.28,37.7-17.59-17.68-34.52-33.44-50-47-5.93-8.8-8.42-18.75-10.83-28.38-2-7.84-4-15.94-7.85-23.27l-2.25,1.19c3.73,7,5.63,14.65,7.64,22.69,1.89,7.57,3.84,15.34,7.44,22.69-33.09-28.44-58.93-46.3-69.32-50.79l-1,2.33c10.63,4.6,37.56,23.31,71.92,53.13-15.05-6.53-39.27-13.32-54.27-8.58l.77,2.42c16.15-5.1,43.85,3.94,57.52,10.84l.41-.8c14.09,12.4,29.33,26.58,45.13,42.35-1.6-.55-3.35-1.08-5.3-1.59-17.49-4.59-44.14-6.18-51-1.27l1.47,2.06c5.54-4,30.68-3.11,48.89,1.67a43.75,43.75,0,0,1,10.8,4c16.81,17,34.18,35.75,51.43,56-15.37-4.39-29.1-4-43.53-3.62-7.3.21-14.84.42-22.82,0l-.13,2.54c8.08.42,15.67.21,23,0,15.39-.43,30-.82,46.51,4.67q12.69,15.06,25.19,31.18c6.69,8.65,13.55,18.56,20.31,29.29-33.77-12.2-56-18.8-78.63-6.73l1.19,2.24c22.28-11.86,43.43-5.16,78.9,7.72l.2-.57c3.86,6.21,7.67,12.67,11.39,19.32l2.22-1.24c-3.37-6-6.81-11.89-10.29-17.55C791,494.19,796.19,487.65,800,479.22Z" transform="translate(-483.49 -227.26)"/></svg>