<svg id="Layer_1" data-name="Layer 1" xmlns="http://www.w3.org/2000/svg" viewBox="0 0 250.68 253.18"><defs><style>.cls-1{fill:#16d67f;}.cls-2{fill:#0fb767;}</style></defs><title>green-leaf</title><path class="cls-1" d="M391.69,533.66c1.66-6.27,14.4-14.93,18-18.1a186.47,186.47,0,0,1,23.82-17.85c7.41-4.82,15-8,21.49-15.31,6.83-7.65,8.24-15.91,5.46-26.07-2.17-7.91-4.31-18.74-9.74-24.5-1.08,8-11.58,19.11-17.13,25.35-7.55,8.48-14.91,17.46-22.52,26.28-7.05,8.21-11.88,18.85-22.59,21.92-14,4-8.69-5.16-3.09-15,10.6-18.69,27.47-34.82,39.94-52.49C430.55,430.5,441.1,414.4,441,405c-.05-3.6-4-12.28-5.23-16.09-1-2.95-5.08-9.75-7.3-11.37-4.95,3.79-12.29,17.77-14.61,23.16-3.89,9.07-7.52,15.09-10.76,19.24,5.76-13.54,12.23-30.39,18.53-48.56s-8.44-29.93-16-38.36c-3.28,4.57-4.42,16.47-5.55,22.73-1.68,9.33-3.11,16.15-7.14,25.68-5.4,12.8-15.9,39.61-30.68,38.07-4.91-16.7,13.69-47.81,22-63,15.22-27.82-17.73-73.64-24.42-75.51l-34.4,252.65Zm-15.21-77c2.67,5.48-4.48,18.4-9.86,22.74-12,9.71-15.38.32-6.81-10.64C365.8,461.12,370.71,449.75,376.48,456.68Z" transform="translate(-211.13 -280.48)"/><path class="cls-1" d="M457.46,496.31c-9.48,12.53-28.25,30.47-41.17,36.19l-2.56,1.16H450C455.84,521.26,462,504,457.46,496.31Z" transform="translate(-211.13 -280.48)"/><path class="cls-2" d="M238.12,520.43c3.83,3.56,9.79,7.86,13.59,13.23h73.73L359.84,281c-16.45-4.61-44.88,22.2-54.76,38.6-13.71,22.77,7.44,52.74,11.6,72.34,1.72,8.08,12.06,29,8.9,38.61-5.6,17-18,1.79-22.14-5-6-9.79-9.26-24.42-9.44-38.39-.16-11.73,6.65-29.33,1.83-40.5-6.49.31-26.22,15.46-28.72,22.16-2.72,7.32,4.49,17.67,6,23.28,1.86,6.79,1.84,15.09,3,22.24,2.38,15.15,7.74,26.41,14.61,38.87,4,7.27,18.46,17.12,16.52,27.55-17.23,11.16-36.78-13.85-38.9-29.91-1.68-12.66-3.81-24.8-2.26-36.88,1.72-13.4,1.6-24-1.16-36.77-14.33,3-16.68,15.16-22.76,29.12-3.52,8.07-5.18,8.9-5,18A115.85,115.85,0,0,0,241,448.63c1.57,6,4.55,13,7,18.61s4.11,12.19,7.94,17.37c6.64,9,22.86,12.68,20.37,29-10.74-4.39-18.75-13.45-26.43-22.22-11.92-13.65-14.35-26.81-20-46.11-6.54,5.14-13.53,16.24-16.62,24.81-4.87,13.51-.88,19.19,5.63,28.09C225.14,506.75,230.53,513.37,238.12,520.43Zm82.21-165.85c-1.77-5.29,4.65-14.93,11.24-17.19s11.53,12.23,11.48,18.05c0,4.53-1.26,18.48-6.26,20.19C332,377.29,321.64,358.48,320.33,354.58Z" transform="translate(-211.13 -280.48)"/><path class="cls-2" d="M226.41,520.08c-.44,5.16-1.19,9.55-1.83,13.58h11.66C233.08,526,230.64,518.23,226.41,520.08Z" transform="translate(-211.13 -280.48)"/></svg>