<svg xmlns="http://www.w3.org/2000/svg" viewBox="0 0 316.5 312.9"><title>lady-yellow-leaf2</title><path d="M800,361.4a16.6,16.6,0,0,0-5.4.6c-11.3,3.1-13.9,15.5-13.8,25.8.1,12.4,7.8,22.9,6.8,35.1-.5,6.5,2.3,23.1-.7,28.8-10.2-7.6-26.1-23.4-27.2-35.7-2.5-25.3,16.5-69.7,4.8-93.5-8.3-16.6-33-27.9-40.8-6.8-5.6,15.1-.9,34-.1,49.6a73.5,73.5,0,0,1-.1,11.5,14.3,14.3,0,0,1-.6,3v.2a8.8,8.8,0,0,1-1.3.7l-2.4.7a4.7,4.7,0,0,1-2.5-.3,11.3,11.3,0,0,1-4.8-4.3c-10.4-15.7-12.1-37.7-14.2-56-.9-8-1.6-16.2-2.6-24.2s-6.1-17.3-12.4-23.5-11.3-9.8-25.7-1.5c-5.5,3.2-13.3,7.2-2.6,34.9,5.4,14,1.5,26.1-.9,23.5-10.8-10.9-.3,7.4-20.4-46.6-.5-1.3-1.4-5-9.8-23.2-12.8-22.3-22.1-39.1-39.4-30.7-9.6,4.6-5.4,15.9,5.7,36.1,2.2,4-19-15-22.8-17.2-23.5-13.6-41.7-14-51.4-14.3s-25.9,1.3-30.6,12.8c-5.5,13.6,9.6,22.7,19.4,27,14.1,6.1,6.4,3.9,34.5,10.7,6.6,1.6,33.2,16.9,33.3,17s-14.9-3.5-30.3-1.9c-19.9,1.9-18.2,12.3-14.5,23.4,4.6,13.6,20.1,16.8,32.7,18.1,9,.9,40.3-7.6,64.3,6.7-59.9-2.9-62.7,13.8-52.9,27.1,7.2,9.9,19.8,16.5,32.2,16.2,7.8-.3,15.6-2.6,23.4-3.1,9.9.9,14.4,3.9,17.9,4.7s24.6,7.6,20.3,14.5-16.2,5.5-22.3,5.8c-18,1-38.6,5.6-34.4,23.6,6.7,28.4,23.5,23,45.2,18.4,46.3-9.9,65.9-4,75.2,4.1a90.7,90.7,0,0,0-43.7,9.2c-8.1,3.9-16.5,8.2-23.1,14.3s-11.3,10.4-13.1,17.5-.7,12.1,4.3,16,8.7,4.1,13.5,4.1a32.9,32.9,0,0,0,20.7-2.9c6-3.1,11.7-7.4,18.6-8.2,13.7-1.7,35.3-4.6,46.8.9,20.9,10,32.4,28.3,47.3,30.1Z" transform="translate(-483.5 -227.3)" style="fill:#fff200"/><path d="M800,479.2v-7.3c-3.7,11-9.4,19.6-16.6,23.9-7.3-11.7-14.8-22.5-22-31.8s-15.3-19.4-23.1-28.7h.1c-8-16.6-3.6-31.9.8-46.7,3.7-12.6,7.2-24.6,3.4-36.9l-2.5.8c3.6,11.6.2,23.1-3.4,35.4s-7.8,26.8-3.3,41.6c-16.2-19.1-32.5-36.8-48.4-53.1h.1a7.5,7.5,0,0,0-.7-1.2h0c-7.5-13.7-7-27.3-6.5-41.8.2-7.2.5-14.6-.3-22.2l-2.5.3a159,159,0,0,1,.2,21.8c-.4,13-.8,25.3,4.3,37.7-17.6-17.7-34.5-33.4-50-47-5.9-8.8-8.4-18.8-10.8-28.4-2-7.8-4-15.9-7.9-23.2l-2.2,1.1c3.7,7.1,5.6,14.7,7.6,22.7s3.8,15.4,7.4,22.7c-33.1-28.4-58.9-46.3-69.3-50.8l-1,2.4c10.6,4.6,37.6,23.3,71.9,53.1-15-6.5-39.2-13.3-54.2-8.6l.7,2.4c16.2-5.1,43.9,4,57.5,10.9l.4-.8c14.1,12.4,29.4,26.6,45.2,42.3l-5.3-1.6c-17.5-4.6-44.2-6.2-51-1.2l1.5,2c5.5-4,30.6-3.1,48.8,1.7,5.5,1.4,8.8,2.8,10.8,4,16.8,17,34.2,35.8,51.5,56-15.4-4.4-29.1-4-43.6-3.6-7.3.2-14.8.4-22.8,0v2.6c8.1.4,15.7.2,23,0,15.4-.5,30-.9,46.5,4.6q12.8,15.1,25.2,31.2c6.7,8.7,13.6,18.6,20.3,29.3-33.8-12.2-55.9-18.8-78.6-6.7l1.2,2.2c22.3-11.9,43.4-5.1,78.9,7.7l.2-.5c3.8,6.2,7.6,12.6,11.4,19.3l2.2-1.3c-3.4-6-6.8-11.8-10.3-17.5C791,494.2,796.2,487.6,800,479.2Z" transform="translate(-483.5 -227.3)" style="fill:#a123db"/></svg>