<svg xmlns="http://www.w3.org/2000/svg" viewBox="0 0 250.7 253.2"><title>lady-yellow-leaf</title><path d="M375.5,800c1.7-6.3,14.4-14.9,18-18.1A197.4,197.4,0,0,1,417.3,764c7.4-4.8,15-7.9,21.5-15.3s8.3-15.9,5.5-26c-2.2-7.9-4.3-18.8-9.8-24.5-1,8-11.5,19.1-17.1,25.3-7.5,8.5-14.9,17.5-22.5,26.3s-11.9,18.8-22.6,21.9c-14,4-8.7-5.1-3.1-15,10.6-18.7,27.5-34.8,40-52.5,5.2-7.4,15.7-23.5,15.6-32.8-.1-3.6-4-12.3-5.3-16.1s-5-9.8-7.3-11.4c-4.9,3.8-12.3,17.8-14.6,23.2-3.9,9-7.5,15.1-10.7,19.2,5.7-13.5,12.2-30.4,18.5-48.6s-8.4-29.9-16-38.3c-3.2,4.5-4.4,16.4-5.5,22.7-1.7,9.3-3.1,16.2-7.2,25.7-5.4,12.8-15.9,39.6-30.6,38.1-4.9-16.7,13.7-47.9,22-63,15.2-27.9-17.8-73.7-24.4-75.6L309.3,800Zm-15.2-77c2.7,5.5-4.5,18.4-9.9,22.8-12,9.7-15.3.3-6.8-10.7C349.6,727.5,354.5,716.1,360.3,723Z" transform="translate(-194.9 -546.8)" style="fill:#eddb00"/><path d="M441.3,762.6c-9.5,12.6-28.3,30.5-41.2,36.2l-2.6,1.2h36.4C439.7,787.6,445.8,770.3,441.3,762.6Z" transform="translate(-194.9 -546.8)" style="fill:#eddb00"/><path d="M221.9,786.8c3.9,3.5,9.8,7.8,13.6,13.2h73.8l34.4-252.7c-16.5-4.6-44.9,22.2-54.8,38.6-13.7,22.8,7.4,52.8,11.6,72.4,1.7,8.1,12.1,29,8.9,38.6-5.6,17-18,1.8-22.1-5-6-9.8-9.3-24.5-9.5-38.4-.1-11.8,6.7-29.4,1.8-40.5-6.4.3-26.2,15.4-28.7,22.1s4.5,17.7,6.1,23.3,1.8,15.1,2.9,22.2c2.4,15.2,7.8,26.5,14.6,38.9,4,7.3,18.5,17.1,16.6,27.6-17.3,11.1-36.8-13.9-38.9-29.9-1.7-12.7-3.9-24.8-2.3-36.9s1.6-24-1.2-36.8c-14.3,3-16.6,15.2-22.7,29.1-3.5,8.1-5.2,8.9-5,18a114,114,0,0,0,3.8,24.4,139.1,139.1,0,0,0,7,18.6c2.5,5.7,4.1,12.2,8,17.3,6.6,9,22.8,12.7,20.3,29.1-10.7-4.4-18.7-13.5-26.4-22.2-11.9-13.7-14.3-26.8-20-46.1-6.5,5.1-13.5,16.2-16.6,24.8-4.9,13.5-.9,19.2,5.6,28.1S214.3,779.7,221.9,786.8Zm82.2-165.9c-1.7-5.3,4.7-14.9,11.3-17.2s11.5,12.3,11.5,18.1-1.3,18.5-6.3,20.2S305.5,624.8,304.1,620.9Z" transform="translate(-194.9 -546.8)" style="fill:#ffce00"/><path d="M210.2,786.4c-.4,5.2-1.2,9.6-1.8,13.6h11.7C216.9,792.3,214.5,784.6,210.2,786.4Z" transform="translate(-194.9 -546.8)" style="fill:#ffce00"/></svg>