<?xml version="1.0" encoding="UTF-8"?>
<!DOCTYPE svg PUBLIC "-//W3C//DTD SVG 1.1//EN" "http://www.w3.org/Graphics/SVG/1.1/DTD/svg11.dtd">
<!-- Creator: CorelDRAW 2019 (64-Bit) -->
<svg xmlns="http://www.w3.org/2000/svg" xml:space="preserve" width="1000px" height="1379px" version="1.1" shape-rendering="geometricPrecision" text-rendering="geometricPrecision" image-rendering="optimizeQuality" fill-rule="evenodd" clip-rule="evenodd"
viewBox="0 0 1000 1379.31"
 xmlns:xlink="http://www.w3.org/1999/xlink"
 xmlns:xodm="http://www.corel.com/coreldraw/odm/2003">
 <g id="Слой_x0020_1">
  <metadata id="CorelCorpID_0Corel-Layer"/>
  <path fill="#F2104B" d="M62.27 1200.52c-1.6,6.13 -43.19,45 -13.79,80.25 31.97,38.31 94.42,49.3 143.53,55.81 3.08,0.4 8.71,0.62 12.87,1.24 14.17,2.11 79.6,2.73 96.46,0.17l26.57 -2.74c16.74,-1.62 33.96,-4.6 48.95,-7.54 19.85,-3.9 49.61,-10.9 68.69,-17.24 7.42,-2.47 14.24,-4.85 21.12,-7.18 30.1,-10.21 51.95,-20.59 79.71,-34.72 22.55,-11.48 49.93,-29.29 70.35,-44.24 5.8,-4.24 10.36,-7.92 16.09,-12.3 3.59,-2.73 13.08,-11.58 16.88,-12.61 -10.31,15.68 -73.23,64.1 -90.38,75.7 -20.83,14.09 -40.46,25.66 -63.16,37.22 -14.46,7.37 -30.75,14.84 -46.01,20.47 -60.27,22.22 -95.33,31.83 -159.96,40.18 -82.51,10.66 -220.81,6.03 -274.25,-48.05 -11.95,-12.09 -19.43,-27.16 -12.35,-48.44 3.42,-10.27 11.86,-22.5 18.43,-30.89l23.73 -27.71c5.55,-5.57 10.39,-13.19 16.52,-17.38zm590.52 -1199.44l4.77 0c14.5,0.44 28.42,5.1 39.18,16.1l9.32 11.48c16.07,24.78 22.5,57.81 39.62,81.04 18.71,25.39 64.51,24.85 93.6,21.49 25.07,-2.89 46.38,-8.73 72.7,-8.73 18.69,0 30.35,13.74 30.35,33.1 0,10.68 -5.72,28.87 -8.83,37.36 -20.3,55.59 -51.23,104.24 -65.53,162.8 -8.78,35.99 -14.24,80.66 1.76,117.62 4.75,10.96 9.06,19.75 15.92,29.02 7.14,9.64 12.96,16.34 21.18,24.79l35.77 31.99c2.64,2.5 3.86,2.89 6.52,5.5l16.79 17.12c24.16,27.84 33.86,48.35 33.86,91.32 0,38.67 -20.56,76.68 -40.1,104.82 -6.44,9.27 -13.37,17.75 -20.43,26.65l-22.63 25.51c-2.17,2.3 -3.75,3.84 -5.96,6.07l-18.45 17.64c-4.19,4.26 -8.19,7.79 -11.65,12.41 -13.38,17.86 -28.01,18.6 -25.59,33.71 1.08,6.74 0.66,14.41 0.66,21.46 0,42.59 -26.17,88.53 -51.27,119.93l-31.35 36.5c-5.8,6.38 -11.42,10.45 -17.36,16.54 -7.51,7.69 -25.71,28 -33.49,34.32 -12.21,9.91 -21.44,24.12 -33.17,34.63l-17.33 16.56c-3.08,3.13 -5.78,5.61 -8.69,8.82l-24.91 25.4c-11.26,11.6 -23.96,21.15 -36.29,31.46 -44.75,37.44 -94.09,65.76 -148.69,88.06 -33.55,13.7 -67.86,24.15 -103.49,31.47 -54.73,11.25 -95.64,14.24 -151.83,14.24 -57.25,0 -148.52,-13.63 -187.77,-58.2 -7.73,-8.78 -10.57,-20.19 -10.57,-32.28 0,-20.79 27.6,-54.36 43.08,-69.8l26.12 -29.67c1.83,-2.33 3.35,-3.37 5.26,-5.68 13.59,-16.43 26.81,-34 36.47,-53.36 27.08,-54.33 23.84,-106.13 -0.01,-160.76 -4.8,-10.99 -10,-22.89 -15.59,-32.68l-12.6 -23.58c-26.39,-49.89 -42.63,-97.96 -42.63,-158.54 0,-53.56 3.07,-86.7 16.49,-135.49 12.44,-45.26 32.53,-90.06 67.21,-119.16 8.87,-7.44 9.67,-6.69 16.16,-15.54 4.85,-6.61 8.54,-10.6 14.21,-16.43 11.1,-11.4 12.78,-8.3 24.03,-22.98 2.44,-3.18 4.35,-5.55 6.89,-8.44 3.68,-4.18 2.91,-4.8 3.82,-11.56l7.7 -38.51c11.21,-45.69 28.81,-92.48 61.61,-125.96 6.23,-6.36 12.46,-9.77 19.16,-15.8 1.29,-1.17 -0.06,0.24 1.61,-1.67 1.59,-1.83 1.87,-2.46 3.27,-4.4 17.57,-24.24 29.68,-27.59 38.24,-39.41 9.11,-12.57 19.55,-21.58 31.54,-30.78l7.47 -8.95c2.4,-3.27 4.21,-5.58 6.66,-8.67 4.55,-5.76 9.79,-10.54 15.47,-15.14 39.23,-31.71 63.61,-16.93 96.32,5.37 1.98,-2.74 8.61,-7.11 11.91,-8.84 5.23,-2.74 8.93,-2.8 11.37,-8.28 15.13,-33.89 32.05,-27.52 38.16,-40.6 6.39,-13.67 16.2,-23.4 29.24,-29.82 8.44,-4.15 5.97,-1.51 9.75,-9.93 8.43,-18.78 24.53,-28.92 42.79,-35.89 10.17,-3.88 21.27,-6.44 32.2,-6.77zm-2.01 1197.24l-1.08 1.1 1.08 -1.1zm1.09 -1.11l-1.09 1.11 1.09 -1.11zm1.08 -1.1l-1.08 1.1 1.08 -1.1zm1.08 -1.1l-1.08 1.1 1.08 -1.1zm-591.76 5.51c0.95,-3.6 2.72,-4.78 5.42,-6.62 -0.94,3.61 -2.72,4.78 -5.42,6.62zm591.76 -5.51l0 0zm-585.25 -2.21l-1.09 1.1 1.09 -1.1zm1.08 -1.1l-1.08 1.1 1.08 -1.1zm1.08 -1.11l-1.08 1.11 1.08 -1.11zm0 0c0.95,-3.61 2.72,-4.78 5.42,-6.62 -0.94,3.61 -2.72,4.78 -5.42,6.62zm6.51 -7.72l-1.09 1.1 1.09 -1.1zm601.51 -15.45l0 0zm0 0c-1.07,4.09 -4.02,5.77 -6.77,8.55 -14.24,14.42 -46.4,40.54 -63.02,51.7l-39.46 26.04c-26.26,16.03 -59.84,32.03 -88.41,42.4 -49.37,17.94 -104.81,33.23 -157.86,37.9 -26.6,2.34 -49.67,4.36 -76.94,4.47l-46.13 -2.69c-39.51,-5.83 -66.49,-7.29 -105.9,-24.6 -25.38,-11.14 -64.22,-34.3 -52.13,-73.58 4.57,-14.83 28.91,-45.85 40.79,-57.79 6.21,-6.24 10.73,-13.22 15.99,-16.81 -2.38,9.09 -57.69,55.23 7.57,99.33 33.91,22.9 103.29,38.24 144.18,38.58l27.08 1.12c32.05,0 48.04,0.23 81.09,-3.51 98.68,-11.17 209.88,-47.95 287.57,-106.67 5.6,-4.23 10.69,-7.89 16.25,-12.14 5.31,-4.05 10.82,-8.7 16.1,-12.3zm-578.75 -5.52l-1.09 1.11 1.09 -1.11zm587.42 -1.1l0 0zm-586.34 0l-1.08 1.1 1.08 -1.1zm587.43 -1.1l-1.09 1.1 1.09 -1.1zm1.08 -1.11l-1.08 1.11 1.08 -1.11zm1.08 -1.1l-1.08 1.1 1.08 -1.1zm-589.59 3.31c1.01,-3.86 0.41,-2.48 3.25,-4.41 -1.01,3.85 -0.41,2.47 -3.25,4.41zm589.59 -3.31l0 0zm-585.25 -2.21l-1.09 1.11 1.09 -1.11zm1.08 -1.1l-1.08 1.1 1.08 -1.1zm1.08 -1.1l-1.08 1.1 1.08 -1.1zm1.09 -1.11l-1.09 1.11 1.09 -1.11zm586.34 -1.1l0 0zm-585.26 0l-1.08 1.1 1.08 -1.1zm586.34 -1.1l-1.08 1.1 1.08 -1.1zm1.09 -1.11l-1.09 1.11 1.09 -1.11zm-587.43 2.21c1.01,-3.86 0.41,-2.48 3.25,-4.41 -1.01,3.85 -0.41,2.47 -3.25,4.41zm4.34 -5.52l-1.09 1.11 1.09 -1.11zm1.08 -1.1l-1.08 1.1 1.08 -1.1zm582.01 0l0 0zm-580.93 -1.11l-1.08 1.11 1.08 -1.11zm591.77 -11.03l0 0zm-10.84 16.55c0.89,-3.41 1.47,-3 3.65,-6.21 2.37,-3.47 1.99,-3.35 5.14,-5.8 3.78,-2.94 8.04,-6.39 11.8,-8.95 -1.3,4.93 -6.12,7.88 -9.48,11.31 -4.14,4.21 -5.89,6.84 -11.11,9.65zm20.59 -20.96l0 0zm-20.59 16.55c-10.87,16.51 -15.57,18.79 -32.05,31.37 -12.48,9.52 -23.56,17.75 -36.66,26.68l-29.04 17.88c-31.29,19.24 -86.62,42.11 -122.88,52.55 -8.59,2.47 -16.02,4.3 -24.69,6.86 -20.24,5.99 -57,12.73 -79.05,15.52 -17.14,2.17 -42.14,4.82 -59.32,4.71 -6.6,-0.04 -8.87,0.84 -14.07,1.12 -5.1,0.28 -11.07,0 -16.28,0.02 -6.65,0.03 -8.39,-0.99 -14.03,-1.16 -17.88,-0.54 -25.15,-0.22 -44.81,-2.94 -43.95,-6.06 -108.23,-18.87 -137.01,-53.61 -26.93,-32.53 1.95,-63.19 19.67,-86.4 2.59,-3.4 4.83,-4.89 7.29,-8.02l23.68 -25.55c-2.17,8.27 -40.23,39.26 -16.08,77.06 12.54,19.64 44.17,34.94 65.78,42.27 26.24,8.9 57.24,14.98 90.03,17.58 42.19,3.35 60.93,3.26 103.11,-0.01 50.17,-3.88 89.86,-12.61 135.41,-25.44 45.7,-12.87 108.37,-41.29 148.49,-68.41l32.51 -22.08zm29.26 -23.17l0 0zm1.08 -1.11l-1.08 1.11 1.08 -1.11zm1.09 -1.1l-1.09 1.1 1.09 -1.1zm1.08 -1.1l-1.08 1.1 1.08 -1.1zm-591.76 5.51c0.95,-3.61 2.72,-4.78 5.42,-6.62 -0.95,3.61 -2.72,4.78 -5.42,6.62zm591.76 -5.51l0 0zm-585.26 -2.21l-1.08 1.1 1.08 -1.1zm1.09 -1.1l-1.09 1.1 1.09 -1.1zm1.08 -1.11l-1.08 1.11 1.08 -1.11zm587.43 -2.21l0 0zm1.08 -1.1l-1.08 1.1 1.08 -1.1zm1.08 -1.1l-1.08 1.1 1.08 -1.1zm-589.59 4.41c0.95,-3.61 2.72,-4.78 5.42,-6.62 -0.95,3.61 -2.72,4.78 -5.42,6.62zm6.5 -7.72l-1.08 1.1 1.08 -1.1zm0 0c1.02,-3.88 1.03,-2.46 3.37,-5.4l11.81 -14.46c2.24,4.94 1.46,0.91 -5.88,10.56 -2.83,3.73 -5.72,6.86 -9.3,9.3zm-36.85 37.51c0.81,-3.07 38.72,-49.3 40.1,-66.2 4.59,1.25 6.21,5.3 9.76,7.72 -7.36,11.19 -15.96,20.13 -23.68,29.96l-26.18 28.52zm647.04 -59.58l0 0zm1.08 -1.1l-1.08 1.1 1.08 -1.1zm1.09 -1.11l-1.09 1.11 1.09 -1.11zm1.08 -1.1l-1.08 1.1 1.08 -1.1zm-596.1 6.62c-2.99,-4.56 -1.95,-2.18 4.14,-11.24 12.01,-17.86 12.86,-24.25 20.79,-39.52l9.53 9.06c-10.59,16.57 -21.54,25.86 -29.65,36.66 -2.31,3.07 -1.73,2.94 -4.81,5.04zm158.24 174.34c-55.39,0 -136.99,-9.51 -182.52,-40.38 -7.76,-5.26 -13.98,-10.22 -19.85,-17.3 -30.93,-37.35 11.76,-74.2 27.88,-95.7l17.34 -18.75c11.17,7.61 20.71,12.42 34.37,17.97 96.18,39.05 251.33,26.6 349.44,-6.8 27.17,-9.25 38.81,-13.07 65.99,-25.5l40.71 -20.35c23.86,-14.5 32.21,-19.04 55.74,-35.94l18.41 -13.25c9.6,41.95 -4.76,82.32 -24.97,118.03 -1.19,2.1 -2.38,3.61 -3.83,6.03 -6.24,10.39 -3.32,6.67 -15.01,15.61 -15,11.48 -31.44,22.28 -47.68,32.01 -35.77,21.4 -70.51,36.5 -110.23,49.98 -19.74,6.69 -41.45,13.19 -62.81,17.7 -28.78,6.08 -38.54,7.53 -67.73,11.6l-75.25 5.04zm-171.24 -188.69c-3.19,-0.86 -3.36,-2.17 -5.03,-4.8 -11.29,-17.75 -9.65,-32.46 0.34,-50.72 2.08,-3.8 4.29,-7.58 6.68,-10.86 3.11,-4.26 5.42,-8.82 8.85,-9.75 0,15.22 0.39,27.8 -1.69,41.31 -0.98,6.3 -2.21,12.82 -3.85,18.16 -1.61,5.24 -4.01,11.04 -5.3,16.66zm200.5 57.38c-10.61,0 -17.02,-1.18 -27.09,-1.1 -31.69,0.24 -90.92,-10.12 -119.85,-21.43l-28.99 -13.52c-3.73,-2.11 -5.7,-3.88 -9.4,-5.88 1.86,-2.82 5.82,-7.64 8.4,-10.21l25.2 -31.72c26,17.73 43.26,25.31 76.72,33.34 52.74,12.65 122.03,15.29 178.17,8.79 81.97,-9.48 149.06,-27.07 222.71,-64.57l33.76 -18.59c4.01,-2.46 12.6,-8.68 16.46,-9.73 0.6,2.63 1.14,5.55 2.16,7.73 -5.99,3.23 -12.57,9.14 -18.25,13.41 -23.99,18.02 -51.7,34.32 -78.57,48.01 -18.8,9.59 -47.18,21.5 -66.69,28.1 -23.53,7.95 -48.35,15.64 -73.57,21.1 -45.42,9.83 -94.32,16.27 -141.17,16.27zm350.08 2.21c2.41,-4.65 4.4,-7.9 7.13,-12.6 1.49,-2.56 1.96,-3.96 3.36,-6.51 1.63,-2.98 2.52,-3.74 3.92,-7.04 4.2,-9.85 8.29,-18.97 11.47,-29.15 5.9,-18.87 7.65,-35.03 6.64,-55.05 -0.33,-6.52 -2.18,-11.65 -2.18,-18.75 3.38,-2.31 6.57,-5.2 9.76,-7.73l18.88 -16.08c3.83,-3.03 5.93,-5.9 9.3,-8.19 0.64,7.85 3.02,17.32 2.01,26.32 -0.99,8.81 -1.83,17.39 -3.72,26.01 -7.65,34.88 -23.27,60.17 -42.73,87.81 -3.8,5.4 -17.88,19.34 -23.84,20.96zm-311.06 -41.93c-63.18,0 -137.07,-9.38 -189.67,-45.24 2.43,-3.69 4.59,-6.41 7.17,-10.36 4.45,-6.8 17.23,-28.34 17.76,-34.88 3.64,0.99 8.13,7.24 16.46,13.03l19.32 11.23c96.46,43.49 235.04,34.37 333.81,7.74 46.06,-12.41 88.69,-29.13 126.8,-49.66 1.85,3.57 3.93,7.15 4.33,12.14 -3.36,0.8 -12.82,7.28 -16.6,9.58l-25.65 14.71c-3.15,1.67 -5.9,2.98 -9.41,4.77l-18.43 8.82c-30.57,15.7 -87.2,33.26 -120.23,40.9 -31.86,7.37 -86.95,16.31 -119.65,16.11 -9.86,-0.06 -15.76,1.11 -26.01,1.11zm-201.59 -57.38c-4.91,-3.67 -11.92,-18.78 -11.92,-27.59 0,-9.93 4.2,-19.91 7.57,-26.49 2.86,-5.59 9.41,-16.65 14.11,-19.85 0,22.2 0.47,37.2 -5.03,57.78 -1.45,5.42 -4.29,10.75 -4.73,16.15zm541.91 -32c-1.03,-2.18 -1.57,-5.09 -2.17,-7.72 7.33,-2 32.47,-23.48 40.1,-27.59 0.66,3.16 2.08,3.27 -6.34,10.09 -3.78,3.07 -6.31,5.43 -10.07,8.51 -4.19,3.45 -17.31,15.56 -21.52,16.71zm-3.25 -8.83c-0.36,-4.34 -2.22,-6.5 -3.25,-11.03 14.58,-7.86 28.9,-16.27 42.26,-25.38 0.61,2.63 1.15,5.55 2.17,7.72l-30.35 22.07c-2.79,2.01 -7.38,5.68 -10.83,6.62zm2.16 116.97c0.78,-2.97 3.91,-6.5 5.86,-9.49 20.6,-31.58 37.58,-66.01 37.5,-105.27 -0.01,-5 0.39,-10.26 -0.31,-15.16 -0.9,-6.32 -2.53,-8.04 2.13,-12.78l16.33 -15.37c3.14,-3.21 4.4,-4.35 7.23,-8.09 2.56,-3.37 5,-6 8.22,-8.19 10.38,45.4 -17.7,105.52 -45.85,140.91 -7.57,9.52 -21.17,28.09 -31.11,33.44zm-553.82 -108.14c0,17.54 2.42,19.77 11.92,34.21l-0.8 1.39c-0.1,0.21 -0.6,1.17 -0.73,1.46 -10.86,23.5 -9.31,20.98 -25.57,45.7l-8.92 -8.57c2.43,-9.77 6.11,-17.46 8.47,-28.3 2.36,-10.81 3.7,-21.39 3.7,-33.75 0,-5.96 -1.98,-17.8 -0.19,-21.15 0.13,-0.24 4.62,-5.54 5.45,-6.6 1.98,-2.52 3.75,-3.77 5.84,-6.19 2.19,-2.53 2.42,-3.5 4.87,-6.08l17.63 -18.46c-1.96,7.48 -21.67,25.39 -21.67,46.34zm547.32 -20.97c-2.91,-5.59 -5.3,-10.32 -8.67,-15.44 6.84,-1.63 40.6,-18.84 46.61,-22.07 1.85,3.57 3.92,7.15 4.33,12.14 -14.08,9.59 -33.21,19.2 -42.27,25.37zm63.95 -28.69l-16 16.82c-0.12,-7.07 2.71,-6.81 10.69,-13.39 2.89,-2.38 1.5,-2.39 5.31,-3.43zm-560.33 44.14c-6.82,-1.85 -13.01,-21.61 -13.01,-27.58 0,-16.88 9.83,-31.39 18.7,-43.86 1.73,-2.43 2.01,-3.84 5.14,-4.7 0,20.75 0.35,40.32 -5.53,59.48 -1.61,5.24 -4.02,11.04 -5.3,16.66zm561.41 -45.24l-1.08 1.1 1.08 -1.1zm1.08 -1.1l-1.08 1.1 1.08 -1.1zm1.09 -1.11l-1.09 1.11 1.09 -1.11zm1.08 -1.1l-1.08 1.1 1.08 -1.1zm-586.34 -1.1c-0.95,3.61 -2.72,4.78 -5.42,6.62 0.95,-3.61 2.72,-4.78 5.42,-6.62zm586.34 1.1l0 0zm-585.26 -2.21l-1.08 1.11 1.08 -1.11zm1.09 -1.1l-1.09 1.1 1.09 -1.1zm1.08 -1.1l-1.08 1.1 1.08 -1.1zm0 0c0.95,-3.61 2.72,-4.78 5.42,-6.62 -0.95,3.6 -2.72,4.78 -5.42,6.62zm6.5 -7.73l-1.08 1.11 1.08 -1.11zm554.92 26.49c-1.23,-2.6 -0.95,-4.03 -2.17,-6.62 12.37,-6.67 30.92,-22.71 37.93,-26.49 1.15,5.53 -0.46,4.32 -10.58,13.5 -4.16,3.77 -21.78,18.68 -25.18,19.61zm-3.26 -8.83c-0.35,-4.35 -2.21,-6.5 -3.25,-11.04 7.11,-3.82 13,-7.41 20.22,-11.41 3.44,-1.91 6.23,-3.61 9.49,-5.79 3.03,-2.04 7.06,-5.06 10.39,-5.97 0.61,2.63 1.15,5.55 2.17,7.73 -7.12,3.83 -32.24,25.9 -39.02,26.48zm-6.5 128c0.88,-3.36 4.54,-7.27 6.51,-9.93 25.9,-35.01 47.07,-81.91 43.29,-126.84 -1.15,-13.61 -4.67,-7.9 9.52,-22.42 5.24,-5.35 11.43,-9.09 17.63,-17.36 2.48,-3.31 5.25,-6.5 8.67,-8.83 8.63,37.7 -8.3,78.07 -24.55,108.52 -11.28,21.12 -46.2,66.72 -61.07,76.86zm56.36 -161.11c-1.14,4.34 -5.41,7.71 -8.67,9.94 0.32,-3.98 0.48,-3.65 3.01,-5.77 1.33,-1.12 4.36,-3.28 5.66,-4.17zm0 0l0 0zm-603.68 44.14c0,12.55 3.07,27.44 13,34.21 -4.74,9.13 -4.7,11.84 -11.98,24.21 -4.49,7.64 -9.2,14.79 -14.03,22.13l-10.01 -9.67c2.29,-9.16 5.76,-16.89 7.77,-26.81 2.24,-11.04 3.32,-20.36 3.32,-33.03 0,-9.09 -2.9,-15.49 1,-21.06l11.22 -12.85c4.74,-4.98 18.72,-22.39 23.55,-25.68 -1.74,6.63 -23.84,26.13 -23.84,48.55zm612.35 -50.76l0 0zm1.08 -1.1l-1.08 1.1 1.08 -1.1zm-611.27 23.17l20.6 -27.58c0.24,2.98 0.5,3 1.08,5.51 -8.32,5.67 -13.7,16.63 -21.68,22.07zm612.36 -24.27l-1.09 1.1 1.09 -1.1zm1.08 -1.11l-1.08 1.11 1.08 -1.11zm-586.34 -1.1c-1.01,3.86 -0.41,2.48 -3.25,4.41 1.01,-3.85 0.41,-2.47 3.25,-4.41zm586.34 1.1l0 0zm-585.26 -2.2l-1.08 1.1 1.08 -1.1zm1.09 -1.11l-1.09 1.11 1.09 -1.11zm1.08 -1.1l-1.08 1.1 1.08 -1.1zm1.08 -1.1l-1.08 1.1 1.08 -1.1zm586.35 -1.11l0 0zm-585.26 0l-1.09 1.11 1.09 -1.11zm586.34 -1.1l-1.08 1.1 1.08 -1.1zm1.08 -1.1l-1.08 1.1 1.08 -1.1zm-587.42 2.2c1.01,-3.85 0.41,-2.47 3.25,-4.41 -1.01,3.85 -0.41,2.48 -3.25,4.41zm4.33 -5.51l-1.08 1.1 1.08 -1.1zm583.09 -1.11c-10.17,15.47 -7.82,11.79 -19.75,21.82 -2.5,2.1 -5.25,4.91 -8.42,5.77 -1.03,-2.18 -1.57,-5.1 -2.17,-7.73 7.11,-1.93 25.41,-18.52 30.34,-19.86zm-582 0l-1.09 1.11 1.09 -1.11zm582 0l0 0zm-580.92 -1.1l-1.08 1.1 1.08 -1.1zm580.92 5.52c0.81,-3.06 2.14,-3.98 4.09,-6.88 2.52,-3.75 1.8,-3.18 5.67,-5.26 0.94,4.53 0.92,3.15 -2.9,6.92 -3.29,3.24 -2.87,3.07 -6.86,5.22zm20.6 -20.97c-1.14,4.34 -5.41,7.71 -8.67,9.93 0.32,-3.98 0.48,-3.64 3,-5.76 1.34,-1.12 4.37,-3.29 5.67,-4.17zm0 0l0 0zm-579.84 -4.41c-2.48,9.45 -55.21,52.62 3.08,96.17 12.09,9.03 27.44,15.82 41.81,21.43 5.46,2.14 10.06,3.34 15.67,5.01 5.48,1.62 10.73,3.26 17.04,4.72 52.75,12.25 83.4,11.44 134.83,11.71l39.64 -2.68c6.71,-0.96 11.72,-1.19 18.57,-2.05 11.66,-1.48 24.49,-3.64 36.53,-5.85 40.37,-7.38 62.89,-14.07 99.67,-26.53l31.02 -11.45c2.07,3.99 7.19,10.64 7.58,15.45 -62.58,33.71 -135.42,55 -205.86,65.17 -11.14,1.6 -24.16,2.58 -35.04,4.04l-54.98 2.51c-7.77,0.02 -12.16,-0.95 -18.39,-1.14 -43.68,-1.33 -92.1,-7.4 -131.02,-23.29 -14.77,-6.03 -39.82,-18.55 -47.84,-30.74 4.35,-19.03 16.14,-42.76 11.28,-73.31 -1.85,-11.6 3.26,-12.42 15.05,-26.78 3.55,-4.33 7.15,-6.86 10.52,-11.36 3.01,-4.01 6.69,-8.21 10.84,-11.03zm588.51 -2.21l0 0zm1.08 -1.1l-1.08 1.1 1.08 -1.1zm1.08 -1.11l-1.08 1.11 1.08 -1.11zm1.09 -1.1l-1.09 1.1 1.09 -1.1zm-591.76 5.52c0.94,-3.61 2.72,-4.78 5.42,-6.62 -0.95,3.6 -2.72,4.78 -5.42,6.62zm591.76 -5.52l0 0zm-585.26 -2.21l-1.08 1.11 1.08 -1.11zm1.08 -1.1l-1.08 1.1 1.08 -1.1zm1.09 -1.1l-1.09 1.1 1.09 -1.1zm587.42 -2.21l0 0zm1.09 -1.1l-1.09 1.1 1.09 -1.1zm1.08 -1.11l-1.08 1.11 1.08 -1.11zm-589.59 4.42c0.94,-3.61 2.72,-4.78 5.42,-6.62 -0.95,3.6 -2.72,4.78 -5.42,6.62zm6.5 -7.73l-1.08 1.11 1.08 -1.11zm610.19 -22.07l0 0zm1.08 -1.1l-1.08 1.1 1.08 -1.1zm1.08 -1.1l-1.08 1.1 1.08 -1.1zm1.09 -1.11l-1.09 1.11 1.09 -1.11zm-169.08 -282.48l2.17 0c0,12.91 4.32,28.27 8.04,38.16 2.37,6.3 4.5,10.51 7.13,15.92 2.81,5.77 5.55,9.55 9.1,15 10.87,16.66 30.06,34.32 45.42,47.55 31.32,26.98 60.39,51.33 67.82,95.37 6.26,37.14 -2.62,67.16 -17.93,98.44 -2.46,5.02 -8.91,18.08 -12.28,20.59 -3.9,-17.05 -16.54,-37.23 -27.93,-48.81 -3.12,-3.17 -3.9,-5.39 -6.99,-8.32l-28.27 -25.29c-2,-1.73 -2.23,-1.54 -4.26,-3.39 -29.44,-26.7 -53.15,-48.02 -63.93,-90.5 -9.12,-35.95 -4.17,-72.12 6.03,-107.99l15.88 -46.73zm-586.34 76.14c0,-26.17 2.62,-52.21 6.19,-74.25 1.93,-11.88 4.19,-22.11 6.82,-32.79l8.67 -32c2.55,0.61 3.2,1.03 6.5,1.11 0,90.04 11.32,113.46 46.98,184.99 2.99,5.99 5.21,10.57 8.25,15.88 15.43,27.04 34.73,75.1 34.73,109.2 0,26.05 -0.89,38.03 -9.91,62.73 -4.32,11.82 -7.78,19.36 -14,29.89 -1.62,2.75 -4.48,6.66 -5.36,10l-2.16 0c-0.43,-19.41 -21.81,-62.06 -31.07,-80.92 -18.24,-37.14 -37.79,-66.05 -46.89,-111.16 -5,-24.79 -8.75,-53.04 -8.75,-82.68zm141.98 231.72c2.38,-9.07 67.05,-67.9 51.89,-157.65 -7.22,-42.71 -24.42,-70.47 -41.43,-104.58l-22.38 -45.63c23.53,-1.99 30.34,-18.21 30.34,-40.83 6.35,1.51 6.31,0.29 9.09,6.2l21.27 42.35c1.74,3.56 3.5,7.56 5.46,10.99 3.86,6.77 7.24,13.8 10.79,21.01 36.77,74.85 36.61,139.1 -12.84,207.63 -7.8,10.8 -44.6,55.34 -52.19,60.51zm-36.85 37.52c0.88,-3.36 3.01,-5.07 6.25,-9.08 17.29,-21.37 31.41,-46.07 40.22,-72.71 18.94,-57.3 0.92,-106.4 -23.35,-155.82 -3.68,-7.49 -6.58,-13.99 -10.74,-21.06l-11.3 -21.6c-7.04,-14.45 -14.21,-28.52 -19.91,-44.84 -3.99,-11.4 -12.6,-40.2 -12.6,-52.27l19.82 16.24c26.63,20.3 30.69,11.61 35.48,17.94 1.16,1.53 4.77,9.78 6.12,12.53l24.93 48.55c43.03,81.36 49.27,145.74 -3.98,222.53 -2.63,3.79 -5.15,6.61 -8.06,10.55 -3.02,4.09 -5.46,6.81 -8.2,10.42 -2.76,3.66 -4.98,5.43 -8.04,9.46 -1.74,2.29 -2.3,2.64 -4.16,4.59 -4.22,4.41 -18.37,21.77 -22.48,24.57zm63.95 -385.1c21.5,-1.83 30.34,-16.22 30.34,-37.52 12.02,0 23.32,-2.95 29.47,-10.82 5.79,-7.41 7.38,-16.87 7.38,-30.01 14.53,3.45 28.72,-3.59 34.27,-13.66 5.56,-10.11 4.75,-23.97 4.75,-39.3 16.01,10.91 26.39,36.7 33.6,55.17 1.37,3.53 2.9,6.86 4.19,10.07 1.59,3.96 2.74,7.36 4.46,10.91 3.18,6.57 6.28,13.18 10.52,19.08 24.76,34.45 83.84,27.06 119.86,20.94 24.76,-4.2 77.73,-17.33 77.73,22.86 0,34.66 -21.01,67.65 -33.14,97.57 -22.71,56.02 -49.23,97 -49.23,172.77 0,61.3 37.28,97.81 78.36,133.19 9.69,8.35 38.26,33.46 40.86,43.37l-53.8 19.15c-85.53,25.72 -170.69,35.23 -260.42,24.89 -21.71,-2.5 -43.38,-7.59 -62.1,-12.91 -18.65,-5.29 -36.68,-13.16 -51.14,-22.96 -7.77,-5.27 -13.98,-10.23 -19.85,-17.31 -27.91,-33.7 4.39,-68.35 25.97,-93.22 2.34,-2.69 2.75,-3.9 5.4,-6.63l52.24 -62.68c46.27,-65.12 46.15,-129.57 11.1,-200.93l-36.14 -71.34c-1.91,-3.89 -2.88,-7.21 -4.68,-10.68zm-139.82 -20.97c12.92,3.06 27.61,15.34 37.83,23.28 7.31,5.69 5.56,12.15 8.85,28.5 5.03,24.91 23.65,67.66 35.9,88.14l24.88 49.71c15.23,37.92 20.43,51.18 20.43,93.96 0,45.4 -28.91,91 -55.59,123.26l-12.69 13.56c-0.88,-10.76 0.62,-5.76 9.4,-22.43 39.9,-75.67 20.37,-129.9 -13.01,-197.89l-13 -25.38c-7.72,-14.59 -14.32,-26.51 -20.71,-42.92 -16.46,-42.25 -22.29,-81.88 -22.29,-131.79zm131.14 5.52l5.42 13.24 -5.42 0 0 -13.24zm-238.43 688.55l23.63 -33.31c7.33,-11.68 13.83,-24.02 19.27,-37.77 2.67,-6.73 5.11,-15.06 6.75,-21.82 16.43,-67.96 -14.77,-121.98 -43.14,-177.46 -18.29,-35.78 -32.39,-62.8 -38.01,-105.85 -2.24,-17.21 -4.4,-33.85 -5.36,-51.92 -1.65,-31.18 3.56,-74.77 9.84,-105.86 11.43,-56.63 39.45,-124.26 79.04,-151.25l-11.7 22.29c-1.53,2.86 -2.31,5.16 -3.83,8.25 -39.18,79.95 -45.31,204.58 -21.2,281.62l36.72 79.57c10.2,20.94 12.72,24.53 23.14,48.16 3.75,8.5 16.53,47.41 14.57,55.24 -1.32,5.27 -34.68,35.07 -20.36,67.63 2.34,5.32 5.24,11.27 9.75,14.34 -1.38,2.65 -2.05,4.94 -3.26,7.71 -6.98,15.97 -25.22,43.65 -36.56,56.58 -2.39,2.72 -2.9,3.99 -5.41,6.62l-33.88 37.23zm668.71 -689.66c0,6.87 -3.32,20.19 -3.26,35.31 0.08,19.3 0.26,14.37 -6.96,32.63 -19.73,49.85 -33.07,111.35 -10.69,164.11 4.94,11.64 14.38,27.15 22.8,36.37 19.82,21.69 18.2,19.85 40.05,38.67 3.62,3.12 6.91,6.06 10.36,9.33l20.04 19.31c14.32,14.58 23.47,28.49 30.29,48.68 4.1,12.14 -8.97,16.22 -26.6,29.56 -2.92,2.2 -8.67,6.62 -12.09,7.55 -0.91,-11.17 -13.92,-28.75 -20.58,-37.53 -8.95,-11.8 -37.56,-37.84 -49.86,-47.43 -28.36,-22.11 -54.84,-58.18 -60.86,-95.84 -7.33,-45.83 3.12,-89.47 19.35,-131.8l17.2 -40.97c2.25,-5.53 3.94,-8.46 6.03,-13.72l22.61 -50.92c0.91,-1.85 1,-1.94 2.17,-3.31zm-616.69 4.42l0 0zm616.69 -4.42c0,-5.63 -0.02,-1.83 1.08,-3.31 0,5.84 0,1.65 -1.08,3.31zm-608.02 -3.31l0 0zm16.26 121.38c0,40.85 0.21,64.76 9.74,104.85 9.79,41.22 35.68,83.67 54.2,121.36 6.13,12.47 22.76,51.48 22.76,65.1 0,5.44 -30.87,43.01 -35.76,46.35 -0.76,-9.31 -6.22,-27.72 -9.34,-36.84 -18.9,-55.21 -57.1,-100.63 -70.41,-162.24 -17.01,-78.67 -9.6,-153.95 14.58,-228.1 2.33,-7.15 4.5,-13.23 7.41,-20.04 8.15,-19.08 4.14,-16.23 27.41,-16.23 -0.18,8.15 -20.59,63.46 -20.59,125.79zm-39.02 39.73c0,119.91 18.28,133.26 66.85,232.08 13.46,27.38 15.7,41.55 22.02,69.16 -7.06,4.81 -30.13,35.99 -35.76,37.52 0,-10.94 -5.73,-29.08 -8.53,-37.67 -18.02,-55.24 -56.88,-100.93 -71.02,-163.82 -18.85,-83.84 -7.67,-191.02 28.6,-264.17 4.05,-8.16 7.86,-15.85 12.79,-23.4 8.58,-13.12 10.71,-8.65 21.9,-14.12l-14.09 35.31c-2.25,5.72 -4.19,12.65 -6.05,19.23 -9.4,33.33 -16.71,71.8 -16.71,109.88zm83.45 -205.24c16.86,0 18.51,2.08 23.85,2.2l1.1 41.91c0.35,7.27 2.15,14.13 2.15,22.09l-19.07 -13.68c-3.95,-2.69 -6.04,-4.09 -10.19,-6.19 -3.96,-2 -7.91,-3.55 -11.93,-5.51 0,-21.87 0.72,-21.16 6.15,-34.57 1.59,-3.94 2.9,-6.25 7.94,-6.25zm-15.17 25.37l0 15.45c-2.88,-1.4 -1.16,-1 -5.42,-1.1 0.67,-2.93 1.35,-4.74 2.28,-7.61 0.12,-0.37 0.88,-2.8 1.09,-3.3 0.94,-2.2 0.61,-1.75 2.05,-3.44zm81.29 4.42c14.62,9.97 22.14,20.7 41.87,30.19 3.32,1.6 5.28,1.59 7.98,2.91 0,18.89 -7.44,38.62 -28.18,38.62 -3.67,0 -5.74,-8.58 -7.99,-15.03 -5.71,-16.34 -8.97,-29.05 -11.99,-46.28 -0.62,-3.53 -0.61,-7.94 -1.69,-10.41zm46.6 -1.1c-0.39,-2.09 1.36,-3.93 0.69,-0.7 -0.02,0.07 0.03,4.55 -0.69,0.7zm-87.79 -25.38c9.86,2.34 28.4,14.84 36.07,21.75 4.63,4.18 4,7.72 5.11,14.67 1.82,11.35 4.15,21.8 7.12,32.47l10.23 29.31c-10.04,0 -21.09,-6.71 -27.11,-11.02l-24.25 -19.45c-2.47,-2.32 -1.48,-0.8 -2.43,-3.05 -3.31,-7.84 -4.74,-54.42 -4.74,-64.68zm88.87 -2.21c6.28,4.28 12.06,10.12 18.48,14.29 5.51,3.59 14.76,9.31 22.71,9.98 -0.79,9.6 -2.54,18.78 -6.66,25.22 -3.57,5.57 -12.77,11.2 -21.52,11.2 -3.44,0 -2.96,-1.78 -4.11,-4.65 -8.51,-21.36 -8.9,-30.76 -8.9,-56.04zm-174.49 43.03c1.35,-5.16 21.46,-27.96 28.18,-29.79l-9.72 18.8c-4.04,8.22 -4.69,5.09 -13.02,8.81 -2.36,1.06 -2.41,1.46 -5.44,2.18zm29.26 -30.89l-1.08 1.1 1.08 -1.1zm617.78 -5.52c0,6.9 -3.29,20.93 -3.26,36.41 0.11,49.7 13.83,80.83 46.88,114.49 10.74,10.93 31.6,28.62 42.76,38.11 12.27,10.45 28.35,28.37 36.46,43.44 32.13,59.71 4.58,131.64 -33.71,179.4 -4.13,5.15 -4.84,5.75 -9.87,9.81 -3.12,2.52 -8.35,7.67 -12.07,8.68 11.64,-22.39 16.39,-25.6 25.62,-54.46 15.27,-47.74 7.28,-93.16 -26.44,-130.07 -4.86,-5.32 -1.53,-3.85 -9.56,-10.14l-37.6 -33.44c-1.95,-1.94 -2.88,-3.19 -4.96,-4.88 -2.41,-1.95 -2.96,-2.11 -5.33,-4.5l-19.16 -21.33c-12.15,-16.58 -20.47,-30.69 -26.2,-53.87 -6.75,-27.34 -4.07,-29.04 7.53,-54.39 1.33,-2.92 2.26,-4.33 3.52,-7.45l25.39 -55.81zm-617.78 5.52l0 0zm617.78 -5.52c0,-5.63 -0.02,-1.83 1.08,-3.31 0,5.83 -0.01,1.64 -1.08,3.31zm-609.11 30.9c-4.27,-0.1 -4.77,-1.11 -13,-1.11 -3.74,0 -4.2,0.82 -7.59,1.11 9.3,-17.89 13.84,-31.4 30.35,-35.31 -1.85,3.92 -0.86,4.82 -1.07,9.94 -0.19,4.67 -6.79,21.72 -8.69,25.37zm10.84 -28.69l0 -7.73c3.36,-0.29 2.05,0.02 4.34,-1.1l-4.34 8.83zm52.02 -47.45c14.37,0 14.77,2.07 20.6,2.21l1.08 39.72c0.18,7.24 2.03,14.47 2.17,20.96 -9.18,-6.26 -13.81,-12.03 -27.81,-19.13 -4.09,-2.07 -7.41,-3.29 -11.21,-5.14 0,-4.1 0.51,-33.54 3.2,-36.47 1.64,-1.78 8.38,-2.15 11.97,-2.15zm66.12 32c9.17,6.25 6.5,11.25 6.5,30.89l-0.7 -1.49c-0.37,-0.99 -5.8,-20.76 -5.8,-29.4zm28.18 -48.55c2.1,1.43 4.38,3.54 6.64,5.37 6.98,5.66 10.43,6.63 10.78,13.3 0.71,13.47 -1.14,16.97 1.63,35.86 0.64,4.36 0.24,7.33 0.45,11.68 0.25,5.02 1.09,5.99 1.09,12.13 -2,-0.97 -4.33,-1.39 -6.51,-2.2 -1.91,-0.7 -4.08,-1.51 -6.15,-2.57 -3.3,-1.69 -7.74,-4.51 -10.74,-6.72 -6.58,-4.87 -17.68,-11.56 -17.53,-16.86 0.45,-15.94 7.99,-41.58 20.34,-49.99zm-147.4 55.17c-4.73,1.12 -6.12,3.29 -10.84,4.41 1.91,-2.91 9.45,-12.66 11.92,-14.34 -0.35,4.25 -1.08,4.34 -1.08,9.93zm74.78 -35.31c7.83,1.86 18.07,8.39 24.29,12.79l15.42 11.88c5.09,4.45 4.99,21.55 9.52,37.76 4.89,17.51 3.21,8.95 3.88,23.64 0.23,4.95 0.98,3.99 1.08,8.83 -12.76,-1.09 -35.72,-21.87 -44.78,-29.44 -8.23,-6.88 -5.7,-6.34 -8.17,-29.21 -1.25,-11.61 -1.24,-23.91 -1.24,-36.25zm-37.93 35.31c-10.65,-5.2 -20.92,-2.82 -28.18,-2.21 16.76,-32.24 12.2,-25.01 29.26,-34.2 0,12.84 -1.08,22.78 -1.08,36.41zm128.97 -39.73c10.63,7.25 17.48,15.72 32.52,22.07 2.43,1.02 4.23,1.1 6.5,2.21 0,26.42 -9.76,38.62 -35.77,38.62 0,-23.87 -3.25,-41.25 -3.25,-62.9zm-146.31 13.25c-1.01,3.82 -5.13,9.28 -7.24,13.59 -2.48,5.08 -3.54,11.23 -10.1,11.79 0,-13.01 2.13,-15.02 17.34,-25.38zm0 0l0 0zm8.67 -7.73l0 0zm529.98 126.9c0,-34.69 4.67,-47.63 11.93,-76.13 7.43,-29.12 30.68,-79.53 31.42,-82.77 22.61,15.41 -5.27,76.79 -14.07,94.92l-29.28 63.98zm-481.21 -168.83c8.79,-0.74 6.19,-2.21 21.67,-2.21 6.45,0 8.16,2.08 14.09,2.21l1.11 41.91c0.35,7.27 2.15,14.12 2.15,22.09 -5.28,-2.84 -16.99,-13.67 -29.26,-19.87 -3.96,-2 -7.92,-3.55 -11.93,-5.51 0,-13.09 2.17,-25.71 2.17,-38.62zm124.64 -2.21c0,22.37 1.83,30.14 2.19,45.22l1.06 15.47c-9.76,-0.82 -24.07,-12.67 -31.75,-18.43 -7.27,-5.46 -8.91,-4.79 -4.85,-24.35 1.19,-5.77 0.81,-9.07 6.31,-11.22 6.12,-2.4 19.63,-6.06 27.04,-6.69zm-173.41 44.14c0.75,-2.88 3.25,-5.76 5.17,-7.97 2.43,-2.8 4.14,-5.7 6.75,-7.48 -0.36,4.36 -1.09,5.18 -1.09,11.04 -2.32,1.13 -8.39,3.83 -10.83,4.41zm97.54 30.9c-11.2,-7.64 -7.44,-11.26 -10.06,-31.69 -1.51,-11.79 -1.86,-26.14 -1.86,-40.04 7.7,1.83 27.73,13.63 31.43,18.76 -5.17,7.86 -9.39,9.93 -13.95,22.21 -3.3,8.89 -5.56,18.71 -5.56,30.76zm76.95 -75.04c5,-0.11 3.63,-1.1 7.59,-1.1 13.55,0 23.65,4.05 32.51,8.83 0,10.8 3.99,27.2 -5.16,42.19 -7.28,11.95 -19.89,11.88 -31.69,11.88 0,-22.06 -3.25,-39.58 -3.25,-61.8zm-37.93 35.31l-16.26 -14.34c3,-0.82 6.3,-3.97 9.3,-5.98 3.31,-2.22 6.19,-4.1 10.21,-5.05 -0.75,9.1 -3.25,11.1 -3.25,25.37zm7.58 -29.79l0 0zm-98.62 35.31c-9.35,-4.57 -23.73,-3.44 -33.6,-1.1 3.53,-15.42 -2.42,-10.72 12.75,-23.43 6.01,-5.03 14.53,-10.97 23.01,-12.99 -2.02,4.3 -2.16,29.53 -2.16,37.52zm166.9 -80.55c0,7.09 -0.49,16.27 0.06,23.11 0.48,5.9 2.11,16.13 2.11,22.13 -3.77,-0.89 -4.84,-2.1 -8.34,-3.64 -2.96,-1.31 -5.99,-2.23 -9.05,-2.93 -6.99,-1.59 -14.28,-1.15 -22.71,-1.15l3.81 -23.71c1.07,-4.22 0.69,-4.06 4.03,-5.83 5.07,-2.67 23.11,-7.39 30.09,-7.98zm1.09 0c5,-0.11 3.63,-1.1 7.58,-1.1 66.36,0 62.08,85.74 96.18,116.15 14.95,13.34 44.73,16.26 67.48,16.26 18.6,0 45.36,-5.7 64.27,-8.5 20.42,-3.02 57.12,-7.45 57.12,26.16 0,36.72 -26.02,78.31 -39.65,111.91 -21.26,52.41 -42.72,89.49 -42.72,158.43 0,31.11 14.21,68.11 32.26,88.54 6.8,7.7 12.29,13.65 19.47,20.99l31.45 27.58c4.01,3.8 6.94,5.92 10.84,9.92 8.96,9.21 33.91,33.36 34.95,46.07 -6.97,3.76 -15.05,8.08 -22.61,11.19l-23.99 10.88c-9.97,-15.16 -33.77,-37.74 -49.4,-50.12l-11.04 -9.72c-16.18,-16.49 -26.82,-22.55 -41.11,-48.64 -1.5,-2.74 -2.27,-3.59 -3.61,-6.24 -23.75,-47.15 -15.02,-102.32 0.97,-151.35 3.42,-10.47 7.15,-19.86 10.98,-29.65 1.86,-4.77 3.61,-8.98 5.79,-13.97 11.97,-27.41 50.57,-104.11 50.57,-132.79 0,-19.36 -11.66,-33.1 -30.35,-33.1 -33.7,0 -43.47,5.4 -73.7,8.83 -31.4,3.56 -74.69,3.73 -94.93,-24.74 -6.77,-9.53 -11.46,-21.47 -16.08,-33.28 -5.36,-13.69 -15.53,-38.71 -24.77,-49.81 -1.66,-1.99 -3.87,-4.36 -5.76,-6.28 -2.44,-2.47 -4.74,-3.55 -6.57,-6.55 -2.29,-3.77 -3.62,-38.92 -3.62,-47.07zm-69.37 45.24c0.51,-6.23 8.88,-17.54 12.7,-21.28 6.09,-5.95 13.36,-9.96 20.9,-14.03 -1.53,6.68 -3.73,13.84 -4.19,21.11 -0.27,4.21 0.93,5.25 -1.78,7.02l-27.63 7.18zm114.89 -83.86c9.93,0 21.03,3.27 27.84,6.96 23.13,12.55 32.6,44.13 41.55,64.73 7.26,16.73 12.76,32.93 25.7,44.46 14.95,13.34 44.73,16.26 67.48,16.26 15.17,0 30.91,-3.04 43.66,-5.2 7.14,-1.21 14.18,-2.34 20.61,-3.29 20.42,-3.02 57.12,-7.46 57.12,26.15 0,10.01 -0.19,13.85 -3.12,23.31 -1.69,5.47 -2.98,10.41 -4.86,16.01 -4.05,12.02 -29.9,69.74 -37.9,87.21 -29.68,64.85 -54.88,141.86 -18.8,210.77 7.44,14.2 26.85,37.52 38.67,46.7 2.4,1.87 2.86,2.45 5.13,4.7l17.47 15.32c17.23,14.14 53.56,49.75 55.43,72.67 -3.65,0.86 -15.64,9.08 -19.97,11.67 -6.8,4.07 -14.07,7.37 -20.13,11.5 -12.67,-24.38 -12.02,-18.73 -25.85,-36.58l-32.68 -29.63c-19.74,-15.44 -48.25,-45.24 -57.76,-68.09 -15.44,-37.09 -16.2,-68.96 -8.63,-107.64 5.22,-26.63 20.38,-70.66 32.07,-94.25 4.8,-9.7 8.2,-18.96 13.02,-28.68 10.22,-20.6 33.23,-72.49 33.23,-94.16 0,-19.36 -11.67,-33.11 -30.35,-33.11 -32.52,0 -44.19,5.31 -74.69,8.92 -31.58,3.75 -74.66,3.12 -94.4,-25.46 -17.29,-25.05 -25.29,-76.53 -54.36,-95.83 -12.76,-8.48 -20.67,-9.01 -41,-9.01 0.39,-4.85 1.42,-12.47 2.4,-17.41 2.26,-11.27 1.19,-6.96 10.33,-10.45 6.44,-2.46 6.66,-4.6 14.64,-6.07 4.57,-0.83 13.99,-2.48 18.15,-2.48zm-78.04 45.24c1.39,-6.06 9.11,-16.83 13.26,-20.71 4.25,-3.99 15.39,-12.06 21.43,-13.5l-3.19 22.14c-0.54,4.4 -0.14,3.65 -4.26,4.49 -16.49,3.38 -19.52,5.75 -27.24,7.58zm-61.77 54.07l-15.38 -10.83c-6.02,-3.97 -11.81,-5.9 -18.22,-9.03 0,-38.15 7.4,-79.3 17.33,-115.87 1.29,-4.74 3.95,-10.68 4.34,-15.44 38.82,9.2 69.27,53.6 95.38,60.69 4.41,1.2 5.29,0.12 7.59,3.31 -18.68,4.43 -30.06,31.51 -31.89,33.74 -3.36,4.11 -23.45,8.39 -34.59,33.2 -3.61,8.03 -1.13,5.58 -11.21,10.65 -4.09,2.06 -11.11,6.46 -13.35,9.58zm100.79 -92.69l0 0zm18.43 -5.52c2.31,-4.46 3.68,-5.73 5.32,-11.13 1.47,-4.86 2.26,-9.03 2.26,-15.35 5.02,-1.19 2.58,-2.08 12.38,-3.94 10.81,-2.06 17.9,-10.4 39.65,-10.4 9.93,0 21.03,3.26 27.84,6.96 7.1,3.85 13.42,10.4 18.16,16.82 12.82,17.38 15.49,29.72 23.39,47.91 7.26,16.73 12.76,32.92 25.7,44.46 14.95,13.33 44.73,16.26 67.48,16.26 15.17,0 30.91,-3.04 43.66,-5.21 26,-4.41 47.03,-10.48 67.97,0.8 -1.68,7.33 -10.11,23.93 -13.63,32.46l-13.47 33.74c0,-20.17 -11,-34.2 -30.34,-34.2 -33.72,0 -43.03,5.31 -72.71,8.73 -6.68,0.77 -15.45,0.59 -22.23,1.68 -17.14,2.73 -57.63,-4.52 -71.37,-23.17 -13.72,-18.62 -20.37,-44.04 -30.95,-65.59 -10.76,-21.92 -26.7,-43.03 -54.19,-43.03 -16.45,0 -14.07,1.28 -24.92,2.2zm-18.43 5.52c0.44,-5.38 6.16,-13.37 9.11,-17.21 4.21,-5.48 9.29,-8.87 14.73,-12.58 0,9.18 -1.98,15.12 -5.57,20.81 -3.53,5.61 -10.17,7.06 -18.27,8.98zm26.01 -33.1c0.57,-5.24 1.09,-4.11 3.25,-1.11 -1.03,0.28 -2.72,0.45 -3.25,1.11zm-186.41 -14.35c-0.95,3.6 -3.88,7.22 -5.77,10.68 -19.94,36.43 -35.03,84.36 -40.51,125.37 -1.73,12.87 -1.23,7.08 -12.1,21.9l-5.12 6.92c-3.37,3.88 -7.51,5.72 -11.63,9.13 -3.27,2.7 -6.58,6.14 -9.41,8.07 0.69,-8.46 3.28,-19.37 4.96,-28.05 1.83,-9.43 3.83,-17.66 6.33,-26.66 6.03,-21.66 17.07,-53.36 27.77,-72.14 4.25,-7.44 8.37,-13.96 12.96,-21.02 8.65,-13.31 19.54,-25.35 32.52,-34.2zm217.84 2.21c5.05,-9.72 7.59,-13.47 7.59,-27.59 12.02,0 23.32,-2.95 29.47,-10.82 5.79,-7.41 7.38,-16.86 7.38,-30.01 14.53,3.45 28.72,-3.59 34.26,-13.66 5.57,-10.1 4.76,-23.96 4.76,-39.3 26.31,17.94 34.85,70.31 52.77,95.24 24.76,34.45 83.84,27.05 119.86,20.93 24.76,-4.2 77.73,-17.33 77.73,22.86 0,32.7 -19.98,67.35 -32.5,96.02 -1.93,4.4 -3.28,7.98 -5.44,12.12 -19.41,-13.23 -50.85,-4.43 -71.37,-0.94 -33.44,5.7 -92.35,11.55 -114.44,-18.43 -20.13,-27.31 -24.4,-67.44 -48.93,-92.53 -21.7,-22.18 -40.69,-15.62 -61.14,-13.89zm-217.84 -2.21l0 0zm8.67 -7.72l0 0zm16.25 128c-12.55,-6.13 -27.01,-1.76 -34.68,-1.11 0,-29.5 17.17,-91.55 29.98,-119.54 6.01,-13.12 1.01,-11.77 25.3,-11.77 -0.12,5.13 -5.96,23.09 -7.59,29.79 -8.31,34.14 -13.01,64.31 -13.01,102.63zm-36.85 0c-8.58,2.03 -19.25,10.09 -26.02,15.44 -2.94,2.32 -4.65,4.64 -7.57,6.63 0.82,-10.07 6.6,-35.7 9.1,-45.91 7.22,-29.47 22.37,-73.15 40.26,-98.04 2.83,-3.94 8.1,-5.71 13.2,-7.53 2.5,-0.89 3.6,-0.87 5.72,-1.9l-21.81 60.55c-4.11,14.22 -12.88,55.66 -12.88,70.76zm81.29 -172.14c17.5,0 25.33,1.25 41.25,10.97 22.23,13.57 43.82,37.11 62.42,46.79 13.05,6.8 12.14,2.12 12.3,9.55 -5.36,1.46 -14.23,10.12 -17.37,14.32l-8.88 15.23c-1.79,4.2 -0.08,4.66 -6.27,4.66 -29.51,0 -73.88,-61.11 -104.04,-61.8 2.76,-12.06 8.22,-21.99 12.35,-32.66 1.65,-4.28 2.83,-7.06 8.24,-7.06zm113.8 1.1c9.96,6.8 25.66,22.96 41.19,24.28 -0.86,10.41 -2.94,20.1 -7.52,26.55 -3.24,4.58 -22.03,9.86 -25,9.86l-5.42 0c0,-21.63 -3.25,-39.08 -3.25,-60.69zm-174.49 43.04c1.35,-5.16 21.46,-27.97 28.18,-29.79l-9.72 18.79c-4.04,8.22 -4.69,5.09 -13.02,8.81 -2.36,1.06 -2.41,1.47 -5.44,2.19zm29.26 -30.9l-1.08 1.11 1.08 -1.11zm0 0l0 0zm8.67 25.38c-4.27,-0.1 -4.77,-1.1 -13.01,-1.1 -3.73,0 -4.19,0.81 -7.58,1.1 4.94,-9.51 12.7,-27.73 22.35,-32.41 2.19,-1.06 3.84,-1.72 6.12,-2.6 2.73,-1.05 5.13,-1.45 7.29,-2.51 -0.88,3.86 -2.34,5.63 -3.97,9.19 -1.53,3.32 -2.5,5.93 -3.92,9.26 -2.68,6.33 -4.42,13.56 -7.28,19.07zm157.15 -92.69c2.1,1.43 4.39,3.54 6.65,5.37 19.31,15.66 6.14,6.46 12.4,49.17l1.55 23.81c-2,-0.98 -4.33,-1.4 -6.51,-2.2l-16.89 -9.29c-6.59,-4.87 -17.68,-11.57 -17.53,-16.87 0.44,-15.93 7.99,-41.57 20.33,-49.99zm-138.73 52.97c11.1,-21.35 11.48,-27.21 27.08,-33.13 30.31,-11.5 56.13,6.75 78.67,24.78 19.68,15.73 6.9,7.94 13.02,49.64l1.54 20.5c-13.96,-1.18 -41.7,-27.1 -52.02,-35.31 -15.63,-12.43 -33.98,-27.59 -60.7,-27.59 -3.72,0 -4.22,0.75 -7.59,1.11zm157.16 -37.52c10.63,7.25 17.48,15.72 32.52,22.06 2.43,1.02 4.23,1.11 6.5,2.21 0,26.42 -9.77,38.63 -35.77,38.63 0,-23.87 -3.25,-41.26 -3.25,-62.9zm-146.32 13.24l-10.44 20.27c-3.05,5.63 -3.69,4.3 -9.19,6.09 -4.47,1.45 -6.26,3.48 -10.71,4.54 6.93,-10.54 19.99,-23.84 30.34,-30.9zm0 0l0 0zm8.67 -7.72l0 0zm173.41 -44.14c0,22.36 1.84,30.13 2.2,45.21l1.06 15.48c-9.77,-0.83 -24.07,-12.68 -31.75,-18.44 -7.27,-5.46 -8.91,-4.78 -4.85,-24.34 1.19,-5.77 0.8,-9.07 6.31,-11.23 6.11,-2.39 19.63,-6.05 27.03,-6.68zm-173.41 44.14c1.41,-5.36 15.96,-20.88 21.05,-24.92 20.63,-16.42 40.26,-26.04 67.85,-14.83 7.3,2.97 24.3,12.32 28.16,17.68 -5.17,7.85 -9.39,9.92 -13.96,22.21 -3.3,8.88 -5.55,18.7 -5.55,30.75 -2.68,-1.82 -6.56,-5.52 -9.51,-7.98 -22.18,-18.45 -44.57,-34.26 -74.4,-27.79 -6.51,1.41 -8.72,3.71 -13.64,4.88zm174.5 -44.14c5,-0.11 3.63,-1.11 7.58,-1.11 13.55,0 23.66,4.06 32.52,8.83 0,10.8 3.99,27.2 -5.16,42.2 -7.29,11.94 -19.89,11.87 -31.69,11.87 0,-22.06 -3.25,-39.57 -3.25,-61.79zm-37.94 35.31c-2.53,-1.73 -5.42,-4.59 -8.33,-6.97 -3.09,-2.54 -5.84,-4.21 -7.92,-7.38 3,-0.81 6.3,-3.96 9.3,-5.97 3.31,-2.23 6.19,-4.11 10.21,-5.06 -0.75,9.11 -3.26,11.11 -3.26,25.38zm7.59 -29.79l0 0zm68.28 -45.25c0,7.1 -0.5,16.28 0.06,23.12 0.48,5.9 2.11,16.12 2.11,22.13 -12.54,-2.98 -4.63,-7.73 -40.1,-7.73l3.81 -23.71c1.07,-4.21 0.68,-4.06 4.03,-5.82 5.07,-2.68 23.11,-7.39 30.09,-7.99zm1.08 0c5.01,-0.11 3.64,-1.1 7.59,-1.1 22.63,0 36.82,10.01 46.63,23.15 22.03,29.51 26.58,72.52 49.55,93 14.95,13.34 44.73,16.27 67.48,16.27 18.6,0 45.36,-5.71 64.27,-8.5 20.42,-3.02 57.11,-7.46 57.11,26.15 0,25.97 -11.85,49.37 -21.36,72.04l-44.75 103.41c0,-20.59 -8.67,-22.29 -8.67,-27.59l21.83 -49.5c3.37,-8.31 6.68,-16.03 9.75,-25.38 2.22,-6.76 6.35,-21.15 6.35,-29.95 0,-19.35 -11.66,-33.1 -30.34,-33.1 -33.7,0 -43.47,5.4 -73.7,8.83 -31.4,3.56 -74.69,3.73 -94.93,-24.73 -17.22,-24.23 -22.36,-64.82 -46.61,-89.37 -2.44,-2.48 -4.74,-3.55 -6.57,-6.56 -2.3,-3.77 -3.63,-38.92 -3.63,-47.07zm-69.36 45.25c0.51,-6.23 8.87,-17.55 12.7,-21.28 6.08,-5.95 13.35,-9.97 20.9,-14.03 -1.53,6.67 -3.73,13.84 -4.19,21.11 -0.57,8.98 2.62,5.52 -15.98,10.22 -5.36,1.35 -8.73,2.86 -13.43,3.98zm378.25 734.89l16.32 -26.42c33.21,-56.07 42.31,-121.47 -6.31,-174.67 -6.75,-7.39 0.25,-1.72 -10.77,-11.1l-39.05 -35.28c-8.93,-8.82 -16.67,-14.32 -26.32,-27.26 -30.82,-41.36 -36.7,-82.72 -26.45,-135.11 7.98,-40.79 28.8,-89.78 45.99,-125.31 10.27,-21.23 34.44,-75.51 32.4,-95.84 -1.32,-13.09 -6.34,-22.04 -16.12,-26.7 -17.61,-8.38 -55.69,0.92 -74.49,3.68 -26.9,3.94 -49.84,5.79 -75.35,-1.19 -26.9,-7.36 -33.17,-19.34 -43.48,-41.81 -10.77,-23.46 -12.58,-35.89 -27.15,-58.42 -15.48,-23.92 -32.72,-26.91 -58.11,-26.91 2.38,-29.01 4.2,-27.53 16.26,-30.9 93.82,-26.28 85.14,66.35 118.96,105.1 8.02,9.19 16.7,13.09 29.89,17.01 65.57,19.49 135.6,-26.28 159.15,5.69 7.76,10.54 5.82,25.58 2.42,39.28 -6.18,24.95 -36.75,89.32 -48.85,116.88 -2.6,5.92 -4.61,11.53 -6.87,17.28 -28.44,72.28 -42.21,151.89 20.32,215.45 3.75,3.82 7.4,8.12 11.57,11.4l37.75 33.29c16.75,17.25 30.37,29.68 39.68,54.49 18.95,50.49 -0.38,103.38 -27.59,145.97 -7.61,11.92 -32.26,45.19 -43.8,51.4zm-341.4 -773.51c3.08,-13.46 22.62,-31.35 34.68,-34.21l-3.18 22.13c-0.77,6.23 -1.07,3.02 -18.51,7.65 -4.79,1.27 -8.84,3.44 -12.99,4.43zm39.02 -38.63l0 0zm0 0c0.42,-5.16 5.42,-12.2 8.18,-15.94 15.65,-21.18 82.42,-52.1 116.31,-5.98 34.4,46.8 18.65,96.58 89.2,106.71 68.28,9.81 149.33,-40.06 148.35,24.49 -0.33,21.7 -20.01,63.55 -28.58,82.36 -39.92,87.65 -93.28,199.25 -9.67,284.23 4.19,4.26 7.65,8.33 12.19,11.86 2.79,2.17 3.62,3.41 6.24,5.78 19.54,17.68 22.99,19.14 44.97,41.39 11.89,12.03 22.06,28.88 27.52,45.92 18.64,58.18 -12.02,120.22 -46.56,163.67l-22.69 26.55c-4.19,4.27 -8.02,9.2 -12.73,12.41l17.55 -26.26c30.93,-50.22 49.73,-116.9 10.95,-169.37 -3.11,-4.21 -6.21,-8.51 -9.8,-12.1 -5.76,-5.77 -13.34,-15.08 -21.79,-21.95l-35.61 -31.06c-8.97,-7.63 -24.09,-26.15 -30.47,-36.29 -1.65,-2.62 -2.26,-4.22 -3.91,-7.05 -1.6,-2.75 -2.65,-4.29 -3.87,-7.1 -16.3,-37.57 -16.98,-74.55 -7.82,-113.88 8.71,-37.35 20.45,-64.92 34.93,-97.96l27.45 -61.43c12.73,-29.06 31.26,-85.63 -18.77,-85.37 -44.11,0.23 -104.84,25.15 -151.73,-2.21 -17.73,-10.34 -25.23,-37.28 -33.26,-55.52 -4.76,-10.82 -8.01,-20.29 -13.81,-30.07 -13.77,-23.19 -27.94,-33.52 -55.95,-33.58 -7.58,-0.01 -12.68,1.02 -19.06,2.67 -6.61,1.7 -12.02,3.72 -17.76,5.08z"/>
 </g>
</svg>
