<svg xmlns="http://www.w3.org/2000/svg" viewBox="0 0 212.5 448.2"><title>trendy-yellow-leaf</title><path d="M196.5,608.7c-.2.1-.6,0-.5-.3a4.2,4.2,0,0,0,0-2.5l-.2-.9c-1-3-2.1-6.3-3.1-9.8s-2.1-7.3-3.1-11.2-2-8-2.9-12.1-1.9-8.6-2.7-13-1.6-8.7-2.3-13-1.2-8.7-1.6-12.8-.8-8.2-1.1-12.1c-.1-1.9-.1-3.8-.2-5.7s-.1-3.2-.1-4.7v-.2c0-.1,0-3.2.1-6.7V501l.2-2.5c.2-2.2.4-4,.4-4.1s.3-1.6.5-3.5l.2-.9c.2-.9.2-1,.3-1.1v1.2c.1,1.1.2,2.6.4,4.6s.5,4.2.8,6.8.8,5.7,1.2,8.9,1.1,6.7,1.7,10.3,1.2,7.5,1.9,11.5,1.5,8.1,2.2,12.2l2.4,13,2.4,12.6c.8,4.1,1.6,8.2,2.3,12.1l1.5,7.8c1,5.9,2.4,10.7,3.4,12.2-1.1,2.7-2.2,5.6-3.3,8.5C197.2,609.9,196.7,608.6,196.5,608.7Z" transform="translate(-111.1 -341.3)" style="fill:#f9f055"/><path d="M206.2,580.8l-.8-2.8-2.9-11.2c-.9-3.9-1.9-7.9-2.8-12s-1.7-8.6-2.5-13-1.5-8.6-2.1-12.9-1.2-8.5-1.6-12.6-.8-8.2-1-12l-.3-5.6c0-1.6,0-3.2-.1-4.7v-.5c0-3.3.1-6.4.2-9V482c.2-2.2.4-4,.4-4.1s.2-1.6.5-3.5l.2-1c.1-.8.2-.9.2-.9s.1-.2.1.1v1c.1,1,.2,2.6.5,4.5s.5,4.2.9,6.8.8,5.6,1.3,8.9,1.1,6.6,1.6,10.2,1.3,7.4,2,11.4,1.4,7.9,2.2,12,1.5,8.7,2.3,13.1,1.4,8.3,2.2,12.5,1.4,8.1,2.1,12l1.1,6.2a7,7,0,0,0,1.6,3.7c-1.5,3.5-3.1,7.5-4.9,11.9A18.5,18.5,0,0,0,206.2,580.8Z" transform="translate(-111.1 -341.3)" style="fill:#f9f055"/><path d="M182.4,645l-1.1-2.9c-1.3-3.1-2.6-6.5-3.9-10.1s-2.8-7.5-4.1-11.6-2.7-8.3-3.9-12.6-2.5-9-3.6-13.5-2.2-9.1-3.1-13.7-1.7-9.1-2.4-13.5-1.2-8.7-1.7-12.8c-.1-2.1-.3-4.1-.5-6s-.1-3.4-.2-5.1v-.5c-.2-3.6-.1-8,.1-13.4V527a6.8,6.8,0,0,1,.1-1.2c0-.1.2-1.7.4-3.7l.2-1c.2-1,.2-1.1.2-1.1s.1-.2.1.1v1.1c.1,1.1.2,2.7.5,4.8s.5,4.5.9,7.3.9,6,1.5,9.4,1.3,7,2,10.9,1.6,7.9,2.5,12.1,1.9,8.4,2.9,12.7,2.1,9,3.2,13.5l3.3,13.1c1.2,4.3,2.2,8.6,3.3,12.7,2.1,8.2,4.1,15.9,5.7,22.5l.4,1.6a.8.8,0,0,1,.1.4c-.6,1.7-1.2,3.4-1.9,5.2A23.9,23.9,0,0,1,182.4,645Z" transform="translate(-111.1 -341.3)" style="fill:#f9f055"/><path d="M175.8,664.2l-1.7-2.5c-2-2.8-4-5.8-6.1-9s-4.3-6.7-6.5-10.4-4.4-7.5-6.6-11.4-4.4-8.2-6.5-12.4-4.2-8.4-6.1-12.6-3.6-8.5-5.3-12.6-3.1-8.2-4.4-12.1l-1.8-5.8c-.5-1.6-.9-3.3-1.4-4.8a4.3,4.3,0,0,0-.1-.5c-.9-3.5-1.8-7.8-2.9-13.1v-1.2l-.2-1.2-.2-1.1c0-.1-.1-1.7-.3-3.7v-2.2c0-.1,0-.1.1.2l.4,1c.3,1.1.8,2.6,1.5,4.6s1.5,4.2,2.5,6.8,2.2,5.7,3.5,8.9l4.3,10.1,5.2,11.3,5.6,11.7c2,4.1,4.1,8.3,6.2,12.4s4,8.1,6.1,12.1l5.9,11.6,10.6,20.6,1.1,2.2v.2c-.5,1.4-1,2.9-1.6,4.4Z" transform="translate(-111.1 -341.3)" style="fill:#f9f055"/><path d="M223.4,541.8c-.7-3.4-1.5-7-2.2-10.7l-2.1-11.3c-.7-4.1-1.3-8.2-1.9-12.3s-1.1-8.1-1.5-12.1-.9-8-1.2-11.9-.5-7.6-.6-11.1c-.1-1.8-.2-3.6-.2-5.3v-4.8c0-3.1,0-5.9.2-8.3s.3-4.4.4-6c0-.1,0-.2.1-.2a22.8,22.8,0,0,1,.6-4.1,3.5,3.5,0,0,1,.2-.9s.1-.1.1.2v.9c.1.9.2,2.4.5,4.2s.6,3.9.9,6.3.8,5.3,1.3,8.3,1,6.2,1.5,9.5,1.1,7,1.7,10.7,1.2,7.5,1.7,11.3l1.8,12.4c.6,4,1.1,7.9,1.6,11.8s1,7.7,1.4,11.5l.5,4,.3,2.1c-1.6,3.8-3.1,7.6-4.6,11.3A22.1,22.1,0,0,0,223.4,541.8Z" transform="translate(-111.1 -341.3)" style="fill:#f9f055"/><path d="M214.6,568.2a19.7,19.7,0,0,0-.7-4.7l-.6-2.3c-.8-3.6-1.8-7.4-2.6-11.3s-1.8-8-2.6-12.1-1.5-8.7-2.3-13.1-1.3-8.6-1.8-12.9-1.1-8.6-1.4-12.7-.7-8.1-.9-11.9c-.1-2-.2-3.8-.2-5.7s-.1-3.1-.1-4.6v-.2c0-.2,0-3.2.1-6.7v-5.1c.2-2.2.4-4,.4-4s.2-1.7.5-3.6l.2-.9a3.9,3.9,0,0,1,.2-1c.1-.1.1-.1.1.2v.9c.1,1.1.2,2.6.5,4.6s.6,4.1,1,6.7.8,5.7,1.3,8.9,1.1,6.6,1.7,10.2,1.2,7.5,1.8,11.5,1.4,7.9,2,12,1.5,8.8,2.1,13.2,1.4,8.4,2,12.5,1.3,8.3,1.9,12.2l.6,4.6a4.9,4.9,0,0,0,2,3.5c-1.3,2.8-2.6,5.6-4,8.4C215.6,565.8,215.1,567,214.6,568.2Z" transform="translate(-111.1 -341.3)" style="fill:#f9f055"/><path d="M168.2,685.4l-1.3-1.7c-2-2.8-4.2-5.9-6.4-9.2s-4.6-6.8-6.9-10.6-4.7-7.6-7-11.6-4.7-8.3-7-12.6-4.3-8.6-6.3-13-3.9-8.7-5.7-12.9-3.2-8.5-4.6-12.5c-.7-2-1.1-3.2-1.5-4.7s-.9-2.8-1.4-4.6l-.5-1.7a1.1,1.1,0,0,0-.1-.5c-.9-3.5-1.3-5.5-1.8-7.8s-.9-4.2-1.3-7.1l-.3-2c0-.1-.2-1.4-.4-2.9v-.8c0-.7-.1-2.5-.1-2.7h0a6.9,6.9,0,0,0,.5,1.5c.3,1.1.8,2.7,1.5,4.7s1.5,4.4,2.5,7.1,2.3,5.8,3.6,9.1l4.5,10.5,5.4,11.5c1.8,4,3.9,8,5.9,12.1l6.4,12.6,6.5,12.4c2.2,3.9,4.3,8,6.4,11.8l11.3,21.1.8,1.3c0,.1.1.2.1.3s-1.1,2.9-1.6,4.4A5.8,5.8,0,0,1,168.2,685.4Z" transform="translate(-111.1 -341.3)" style="fill:#f9f055"/><path d="M162.3,706.4l-1.4-2.1c-2.1-2.9-4.3-6.1-6.5-9.7s-4.7-7.2-7-11.2-4.7-8.1-7-12.4-4.6-8.8-6.9-13.3-4.3-9.1-6.3-13.6-3.7-9.2-5.4-13.7-3.1-8.9-4.4-13.1c-.7-2.1-1.5-5.1-2.4-8.7l-.3-1-.2-.9a6.6,6.6,0,0,1-.3-1.3c-.9-3.7-1.6-8.4-2.6-14v-2.5a10.9,10.9,0,0,0-.1-1.3c-.2-2.2-.2-4-.2-6.2h0v-.2c.1.3.1.5.4,1.6s.8,2.8,1.4,4.9,1.3,4.6,2.3,7.5,2.1,6.1,3.3,9.6,2.7,7.1,4.3,11,3.3,7.9,5.1,12.1,3.8,8.5,5.8,12.8l6.3,13.3c2.1,4.4,4.3,8.7,6.4,13l6.4,12.5c4.1,8,8.1,15.6,11.4,22.1l-1.8,5Z" transform="translate(-111.1 -341.3)" style="fill:#f9f055"/><path d="M153.2,722.8c-2.3-3-4.7-6.4-7.2-10s-5.1-7.5-7.6-11.6-5.3-8.4-7.9-12.9c-1.5-2.7-3-5.4-4.4-8.1L120.9,653l1.5,3.3c2.3,4.6,4.6,9.2,7,13.8s4.8,9.1,7.2,13.5l7,13,12.9,23,.2.4c.3.4.5.6.6.4s.2-.2.3-.3c-.6,1.9-1.3,3.8-2,5.6a2,2,0,0,1-.8-.8Z" transform="translate(-111.1 -341.3)" style="fill:#f9f055"/><path d="M188.1,629l-2-6c-1-3-2.1-6.3-3.2-9.8s-2.2-7.2-3.2-11.1-2.2-7.9-3.2-12.1-1.9-8.6-2.8-12.9-1.7-8.7-2.4-13-1.3-8.6-1.9-12.8-.9-8.2-1.2-12c-.1-2-.2-3.8-.3-5.7s-.1-3.2-.2-4.7V516.8c.2-2.3.4-4.1.4-4.2s.2-1.6.5-3.5l.2-1a3.9,3.9,0,0,1,.2-1c0-.1,0-.1.1.2v1c.1,1,.2,2.5.4,4.5s.5,4.2.9,6.8.9,5.7,1.4,8.9,1.1,6.7,1.7,10.3,1.4,7.5,2.2,11.5,1.5,8,2.3,12.1,1.7,8.6,2.6,13,1.7,8.3,2.5,12.5,1.7,8.2,2.5,12.1c1.6,7.9,3.1,15.3,4.2,21.6s1.1,5.4,1.1,5.6h0q-.9,2.3-1.8,4.8Z" transform="translate(-111.1 -341.3)" style="fill:#f9f055"/><path d="M258.8,456.6c-.3-3-.7-6.2-.9-9.4s-.5-6.5-.6-9.8-.3-6.5-.3-9.7,0-6.3,0-9.3.3-5.9.5-8.6l.3-4c.2-1.1.3-2.2.4-3.2h0c.1-.2.4-2.2.7-4.6l.4-1.8.3-1.6.7-2.6s.4-1.1.7-2.2l.2-.6c.3-.5.3-.5.3-.6s.1,0,.1.2v.7c0,.7-.1,1.8-.1,3.2s-.1,3-.1,5,0,4.1,0,6.5,0,4.9.1,7.6.2,5.6.3,8.6.2,6,.3,9.1.3,6.5.5,9.8.3,6.3.4,9.4c.1,1.4.2,2.9.2,4.3-1.2,2.9-2.5,5.8-3.7,8.8Z" transform="translate(-111.1 -341.3)" style="fill:#f9f055"/><path d="M267.3,441.2c0-3.2.1-6.5.2-9.8s.4-6.5.6-9.7.6-6.3.9-9.3.9-5.8,1.3-8.5,1.1-5.2,1.6-7.4,1.2-4.3,1.7-6.1a35.4,35.4,0,0,1,1.6-4.4c.9-2.4,1-2.6,1.2-2.7s.2-.3.1.6l-.4,2.7a46.3,46.3,0,0,0-.7,5c-.2,1.9-.5,4-.8,6.4s-.4,4.9-.6,7.6-.4,5.5-.7,8.5c-.2,5.1-.6,12.9-.8,17.2l-5.2,12A14.7,14.7,0,0,1,267.3,441.2Z" transform="translate(-111.1 -341.3)" style="fill:#f9f055"/><path d="M249.1,479.5c-.5-3.5-1-7.1-1.3-10.9s-.7-7.5-1-11.3-.4-7.5-.5-11.3-.1-7.3-.2-10.9.3-6.9.4-10.1.5-6.2.8-9a65.1,65.1,0,0,1,1.1-7.4,32.6,32.6,0,0,1,1.1-5.6,22.2,22.2,0,0,1,1-3.4c.1-.2.2-.4.2.7v3.2c-.1,1.6-.2,3.5-.2,5.8v7.5c0,2.8.1,5.8.1,9s.3,6.5.4,9.9c.4,7,.7,14.3,1.3,21.7.2,3.7.5,7.4.8,11.1s.3,4.7.5,7-2.5,6-3.8,9Z" transform="translate(-111.1 -341.3)" style="fill:#f9f055"/><path d="M241,485.3l-1.3-12.2a376.4,376.4,0,0,1-2.3-39.7c0-5.4.2-10,.5-13.1s.5-3.4.6-3.6.3-.4.4.6l.5,3.1c.5,3.1,1.4,7.6,2.3,12.9,1.8,10.7,3.8,25,5.3,39.4l.9,8.5c.2,2.3.3,4.6.4,6.8s-2.7,6.3-4,9.5A51.1,51.1,0,0,1,241,485.3Z" transform="translate(-111.1 -341.3)" style="fill:#f9f055"/><path d="M232.5,522.9c-.5-3.3-1.1-6.7-1.5-10.3s-1-7.2-1.4-10.9-.9-7.8-1.2-11.8-.7-7.7-.9-11.5-.4-7.6-.6-11.3-.1-7.2-.1-10.5v-5c0-1.4.1-2.8.1-4.1s.1-.8.1-1.6.1-1.4.2-4.4l.2-2.3c.2-2.2.3-3,.4-3.9a18.8,18.8,0,0,0,.3-1.9h0s.2-1.4.5-3l.2-.8c.1-.7.2-.8.2-.8s.1-.1.1.1v.9c.1.9.3,2.3.5,4s.4,3.7.7,6,.7,5.1,1,8,.8,5.8,1.2,9,.8,6.7,1.2,10.3.8,7.1,1.1,10.8l1.2,11.9.9,11.3c.3,3.8.5,7.4.7,11a7.6,7.6,0,0,1,.1,1.4l-4.8,11.8C232.8,524.9,232.7,524.2,232.5,522.9Z" transform="translate(-111.1 -341.3)" style="fill:#f9f055"/><path d="M278.6,417.2c.2-2.5.5-5.1.8-7.6s.7-5,1.1-7.4.9-4.8,1.4-7.1,1.1-4.4,1.6-6.4l.9-3c.3-.8.5-1.6.8-2.3h.1c0-.1.5-1.6,1.2-3.4l.6-1.2.5-1.2a11.9,11.9,0,0,1,1-1.9l.9-1.5.3-.4c.2-.4.2-.4.3-.4h0v.5a20.8,20.8,0,0,0-.6,2.4,27.8,27.8,0,0,0-.8,3.8l-1,5c-.3,1.8-.6,3.7-.9,5.8s-.7,4.2-1,6.5l-.9,6.2-6.3,14C278.5,417.5,278.6,417.3,278.6,417.2Z" transform="translate(-111.1 -341.3)" style="fill:#f9f055"/><path d="M139.4,750l3.8,6.1,1,1.7-1.6,4.5-1.1-1.4Z" transform="translate(-111.1 -341.3)" style="fill:#f9f055"/><path d="M147,741.1c-2.3-3-4.8-6.4-7.4-10s-3.5-4.9-5.3-7.6l-3.7-19.6c2.1,3.6,4.1,7.3,6.1,10.8,4.9,8.4,9.5,16.3,13.5,23l.2.4c.2.4.5.7.5.6a.3.3,0,0,0,.1-.2l-1.8,5.3c-.1-.1-.2-.1-.2-.2Z" transform="translate(-111.1 -341.3)" style="fill:#f9f055"/><path d="M143.8,773.1l8.4-3.6,2.2-1.1,11.1-4.8,1.5-.7,4.1-1.7,9-4h.3l13.7-6.1,13.8-6.2,13.3-6.1,12.3-5.9,5.7-2.9,5.3-2.7,4.8-2.7,4.3-2.4,3.7-2.3,3.1-1.9,2-1.4a20.3,20.3,0,0,0,1.8-1.3l.5-.4,1.2-.8c.2-.1.2,0-.2.4l-.7.8-1.1,1.4-2.8,2.8-4.6,4.3-2.2,1.8c-2.7,2.2-5.9,4.6-9.5,7.1s-5.8,3.9-9,5.8l-2.3,1.4c-2.4,1.5-4.9,2.9-7.4,4.3l-5.6,3.1-4.3,2.2c-3.2,1.7-6.5,3.4-9.7,4.9s-9.1,4.2-13.7,6.1l-7,3-6.6,2.6c-4.1,1.7-8.2,3.1-12.1,4.5l-1.2.5c-4.4,1.6-8.6,3-12.5,4.2l-2.4.8c-2.2.8-4.2,1.4-6.3,2Z" transform="translate(-111.1 -341.3)" style="fill:#e8e207"/><path d="M221,731.4c-4.1,2.2-8.3,4.4-12.7,6.5s-8.7,4.1-13.2,6.1-8.9,3.8-13.3,5.6-8.8,3.5-13,5-8.3,3-12.1,4.4l-11,3.5h-.1c-.7,2-1.3,4.1-2,6.1v1.2l-.3.7-1.3-7c1.4-4.2,3-8.4,4.5-12.8.7-1.8,1.3-3.5,1.9-5.3,1.4-3.9,2.9-7.9,4.3-12l.3-.8c.7-1.9,1.3-3.8,2-5.6l4.8-13.6,1.8-5.1c1.7-4.9,3.5-9.8,5.2-14.6l1.6-4.5,6-16.7c.5-1.4,1.1-2.9,1.6-4.4l5.1-13.9c.6-1.7,1.3-3.4,1.9-5.2,1.3-3.4,2.5-6.8,3.8-10.1l1.8-4.8,6.3-16.7,3.3-8.5q3.2-8.2,6-15.3c1.8-4.4,3.4-8.4,4.9-11.8s2-4.8,2.9-6.7,1-2.4,1.5-3.4l4-8.5,1.8-3.9,2.1-5.1,4.5-11.3c1.5-3.6,2.9-7.2,4.4-10.7l4.8-11.8,6.6-16.1,3.9-9.4,1.5-3.6,3.8-8.9c1.9-4.7,3.9-9.3,5.9-13.9l3.7-8.7,4.1-9.6c1.8-4.1,3.5-8.1,5.3-12.1l6-13.6c2.1-4.8,4.2-9.4,6.3-14,4.6-10.1,9-19.8,13.4-28.9,2.2-4.8,4.5-9.4,6.7-13.9a37,37,0,0,1,1.8-5.6l1.1-2.2,2.9-6.3,2.3-5.3c.7-1.6,1.2-3,1.6-4.1s.8-1.8.9-2.2l.3-.5c.1-.3.3-.4.2.2l-.2,2.3a25.3,25.3,0,0,1-.6,4.1,49.3,49.3,0,0,1-1.2,5.4c-.6,2-1.2,4.1-2,6.4s-1.7,4.7-2.7,7.2-2.1,5.1-3.4,7.7-2.5,5.3-3.9,7.9l-.4.7h0c-.2.7-.3,1.3-.5,1.9a18.4,18.4,0,0,1-.4,2.2c-4.9,9.5-5.6,12.9-1.3,7.3,1.1-1.4,3.1-5.4,2.5-3.8a34.4,34.4,0,0,1,2.6-4.5l1.5-1.9,4.1-5.6,3.3-4.7c1.1-1.4,1.8-2.7,2.5-3.7s1.5-2.3,1.7-2.4.3-.4.2.3l-.7,2.1a23.6,23.6,0,0,1-1.4,3.9c-.7,1.5-1.3,3.2-2.3,5.1s-2,3.8-3.3,5.9-2.6,4.3-4.1,6.5-3.1,4.5-4.9,6.8-3.5,4.6-5.4,6.9l-.4.5c-3.1,6.6-6.5,13.4-9.9,20.6l.3-.5.8-.8,4.9-5.4,5-5.7,4.6-5.3,4.3-5,3.8-4.5c1.2-1.4,2.2-2.8,3.1-3.9l2.4-3.1,1.4-2c.3-.5.4-.5.4-.5s.1-.1,0,0v.9a8.4,8.4,0,0,1-.6,1.7,16.4,16.4,0,0,1-.7,2l-.6,1.2-.6,1.2-1.7,3.2h0l-1.3,2.2-1.7,2.6c-1.1,1.7-2.4,3.6-3.8,5.4l-4.4,5.7-4.9,5.6-5.2,5.6-5.2,5.2-4.8,4.6-.7,1.4c-1.9,4.3-3.8,8.8-5.8,13.2l.6-.7,1.3-1.2c2.4-2.1,4.3-3.9,6.7-6.2l9.5-9,4.3-4.1,6.1-6,5.3-5.5,4.4-4.7c1.3-1.4,2.3-2.7,3.2-3.8a22.8,22.8,0,0,1,2.2-2.4c.3-.1.1.4-1.1,2.7a25.4,25.4,0,0,1-2.3,4.1c-1,1.5-2.1,3.3-3.5,5.2s-2.9,4-4.6,6.1-3.6,4.3-5.6,6.5-4.1,4.5-6.4,6.8l-7,6.7-7.2,6.6-7.3,6.1-2,1.7-.8.6-4.2,9.2c1.1-1.1,2.6-2.4,4-3.6l2.8-2.1,7.2-5.6,7.4-5.8,7.6-6,7.2-5.7,6.6-5.3,5.9-4.9,4.9-4.3,3.7-3.2,2.4-2.3.6-.5h0l-.3.6-.3.5-1.1,1.9a20.4,20.4,0,0,0-1.6,2.3l-1,1.3-1.1,1.4-3,3.5H315l-2.2,2.4-2.7,2.9-6.2,5.9c-2.3,2-4.6,4.1-7.1,6.1s-4.9,4.1-7.5,6.1-5.2,4-7.9,5.9-5.1,3.7-7.6,5.4-5,3.4-7.4,5l-2.1,1.3a17.9,17.9,0,0,0-4.2,3.5l-6.7,14.5,2.9-2.2,2.3-1.7,8.6-6.3,8.9-6.6c6-4.4,11.8-9,17.2-13.2l7.8-6.2,6.9-5.7c2.1-1.7,3.9-3.4,5.7-4.9s3.1-2.8,4.2-3.9a23.1,23.1,0,0,1,2.9-2.5c.3-.2,0,.5-1.8,3s-2,2.8-3.4,4.5-3,3.7-5,5.7-3.9,4.2-6.2,6.4-4.8,4.6-7.5,6.9-5.4,4.7-8.3,7-5.9,4.7-8.9,6.9l-9.2,6.6c-3,2.2-6.1,4.2-9.1,6.1s-5.9,3.8-8.6,5.5l-1.2.7c-.5.3-.8.2-1-.1l-5.7,12.5A84.9,84.9,0,0,1,257.8,498l7.1-4.9c11.8-8.2,23.9-15.9,33.2-21.5l11.3-6.7,3.2-1.8c.3-.1,0,.6-2.2,2.9s-5.5,5.4-9.6,8.9A344.8,344.8,0,0,1,269.3,499l-10,6.9c-7.7,4.7-14,8-16.4,8.7l-4.5,9.6a18.3,18.3,0,0,1,2.1-2l2.7-2,8.7-6.6,9.2-6.7,9.8-6.9,8.9-6.1,8.5-5.8,7.6-5,6.7-4.4,5-3.3,3.3-2.3.8-.6c.1,0,.2-.1.1.1l-.5.6-.5.7c-1,1.3-1.9,2.3-1.9,2.4l-.6.6c-.3.4-.6.6-1.8,2.1l-1.5,1.5-3.7,3.6-2.2,2.1H299l-3,2.7-3.8,3.3c-2.5,2.2-5.2,4.5-8.1,6.7s-5.8,4.6-8.8,6.9-6.2,4.6-9.4,6.9l-9.6,6.7-9.2,6.1-8.8,5.5-2.6,1.6-1.6.8-5.9,12.8c1.4-1.2,3.9-3.1,6.4-4.9l3.9-2.6,9.6-6.3L258,526l10.6-6.7,9.7-6.1,9.1-5.6,8.2-5.1,7.1-4.4,5.4-3.4,3.6-2.3.8-.6c.1-.1.1.1-.5.8a37.5,37.5,0,0,1-2.6,3c-.1.1-.1.2-.2.2s-2.5,2.7-4.2,4.3l-1.8,1.7-4.5,4-2.4,2-1.2,1-4,3.3-8.9,6.7c-3.1,2.3-6.4,4.6-9.7,6.8s-6.7,4.5-10.2,6.7-7,4.5-10.5,6.6l-9.9,5.8-9.5,5.2-2.5,1.3-5,2.3L220.1,564a10,10,0,0,0,5.9-1.9l5.3-3.4,10.4-6.5,10.8-6.7,11.3-6.9,10.4-6.4q5.3-3,9.9-6l8.8-5.3,7.6-4.8,5.7-3.6,3.8-2.6.9-.6-.5.8-.6.7c-1.2,1.5-2.3,2.6-2.3,2.7l-2.9,3-1.8,1.6-1.9,1.9-5,4.4h-.1q-1.8,1.3-3.6,3l-4.4,3.5c-3,2.3-6.2,4.7-9.6,7.1l-10.5,7.2c-3.6,2.3-7.3,4.7-11,6.9L245.3,559c-3.6,2.1-7.3,4-10.8,5.9l-10.3,5.3-2.4,1.2a45,45,0,0,0-4.5,2.3l-2,.9-3.8,8.9c2.6,1,5.9.5,9.4-1.7l6.9-4.1,10.5-6.2,10.9-6.5,11.4-6.7,10.5-6.2,9.9-5.9,8.8-5.4,7.6-4.7,5.7-3.8,3.7-2.5c.8-.6.9-.6.9-.7s0,.2-.5.9l-.6.7a24.3,24.3,0,0,0-2.3,2.7s-1.3,1.4-2.9,2.9l-1.8,1.7c-1.9,1.9-4.2,3.9-6.7,6l-.4.4-3.6,2.9-4.4,3.5c-3,2.3-6.3,4.7-9.7,7l-10.6,7.1L253,571.7c-3.8,2.2-7.6,4.4-11.4,6.4s-7.4,3.9-10.9,5.7-7.1,3.5-10.4,5.1l-9.3,4.2-.4.2-3.7,1.5c-1.5,3.9-3.2,8.2-5.1,12.8l17.9-10.5,10.7-6.1,11.1-6.4,11.4-6.6,10.6-6.3,10-5.9,8.8-5.5,7.6-4.9,5.7-3.8,3.7-2.7.9-.6c.1-.1,0,.1-.5.8l-.6.8-2.3,2.6c0,.1-1.4,1.5-2.9,3.1l-1.8,1.7-1.9,1.9-5.1,4.4H285l-3.6,3-4.5,3.5c-3,2.4-6.3,4.7-9.8,7.1s-7,4.8-10.7,7.1-7.5,4.5-11.3,6.7l-11.6,6.4c-3.8,2-7.5,3.9-11.1,5.6s-7.1,3.5-10.5,5l-9.4,4-2.5,1.1-.4.2c-.5,1.2-1,2.4-1.4,3.6a5.9,5.9,0,0,1-.5,1.9,3.3,3.3,0,0,1-.6.8l-4.9,13,1.3-.9,4.5-2.5c5.6-3.3,12.1-7,19.1-10.9l10.8-6,11.1-6.2,11.5-6.5,10.7-6,10.1-5.9,8.9-5.3,7.6-4.8,5.7-3.7,3.8-2.6.9-.7c.1,0,0,.2-.5.9l-.7.7c-1.2,1.4-2.3,2.6-2.3,2.7l-2.9,3-1.9,1.7-1.9,1.8-5.1,4.4h-.2l-3.6,3-4.6,3.4c-3,2.3-6.4,4.6-9.8,6.9s-7.2,4.7-10.9,6.9-7.5,4.5-11.4,6.6l-11.6,6.3-11.2,5.4c-3.6,1.8-7.2,3.3-10.5,4.8s-6.6,2.8-9.5,3.9l-7.6,3-1.4.6c-1.4,3.6-2.8,7.4-4.2,11.2l3.3-1.7,20.8-10.2,11.7-5.8,12.1-6,12.2-6.3,11.6-6.1,10.8-5.9,9.5-5.6,8.1-5,6.1-4,3.9-2.8,1.1-.7c.1,0,0,.2-.7.9l-.7.8-2.4,2.8-.9.8-.8.9-.8.8c-4,3.6-7.3,6.6-10.1,8.8l-.4.3-4,3.1c-1.5,1.2-3.2,2.3-4.9,3.5-3.3,2.4-6.9,4.8-10.7,7.1s-7.7,4.7-11.8,7-8.2,4.4-12.3,6.5l-12.6,6c-4.1,1.9-8.2,3.6-12.1,5.3L201,646.9q-5.4,2.1-10.2,3.6l-2.5.8-3.6,1.2-4.9,13.2.6-.4,1.6-.8,21.7-10.1,12.1-5.7,12.5-6,12.7-6.4,12-6.1,11.1-6.1,9.9-5.7,8.3-5.2c2.4-1.5,4.5-3,6.2-4.2l4-2.8,1.4-.9h-.1l-1.7,2-.5.6-2.1,2.2-4.3,4.2-5.6,5-2.9,2.3c-.1.1-.3.2-.4.4l-3.5,2.6-3.9,2.9-1.8,1.3q-5.2,3.6-11.1,7.2c-4,2.3-8,4.8-12.3,7s-8.5,4.5-12.8,6.6-8.7,4.1-13,6-8.5,3.6-12.6,5.2-8,3.1-11.8,4.4l-10.6,3.5-2,.6-2.8,1-.9,2.2a8.5,8.5,0,0,1-.4,1.7c0,.1-.1.1-.2,0L171.3,689a3.1,3.1,0,0,1,1-.5l1.3-.7,22.4-11,12.5-6.2q6.5-3.1,12.9-6.6l13-6.9c4.1-2.3,8.3-4.5,12.2-6.8l11.4-6.7,10-6.3c3-2.1,5.9-3.9,8.3-5.7s4.6-3.3,6.3-4.6l4-3.1a5.6,5.6,0,0,1,1.3-1h-.2a44.5,44.5,0,0,1-3.8,4.8l-.9,1-.8.9-.8,1c-4.1,3.9-7.5,7.2-10.4,9.7l-1,.8-.8.7-.7.6-7.2,5.6c-3.5,2.6-7.3,5.3-11.3,7.8s-8.2,5.3-12.5,7.7-8.7,4.9-13.2,7.2-8.9,4.5-13.4,6.6-8.8,4-13,5.8-8.4,3.4-12.3,4.8l-10.9,4-2.2.7a24.5,24.5,0,0,0-3,1.1l-5.2,14.7a9.3,9.3,0,0,1,3.1-2.5l1.5-.7,24-10.8c4.4-2,8.8-4.2,13.4-6.2s9.2-4.3,13.8-6.6l13.8-6.9L247,668c4.2-2.4,8.3-4.6,12.1-6.9l10.7-6.5,8.8-5.9,6.7-4.8,4.2-3.3,1.5-1.1-.2.2h-.1a64,64,0,0,1-4.1,5c-.1.1-.1.2-.2.2l-4.6,4.7-6,5.7-3.1,2.6-.4.3-3.8,3-4.3,3.3-1.9,1.3c-3.8,2.7-7.8,5.5-12.1,8.1s-8.8,5.4-13.4,7.9-9.4,4.9-14.1,7.3-9.6,4.4-14.4,6.5-9.3,3.9-13.9,5.7-8.9,3.3-13,4.7-8.1,2.7-11.7,3.8l-2.3.7a18.3,18.3,0,0,0-3.9,1.3c0,.1-.2.1-.5.2l-4.5,12.8.7-.3,2.2-.9,24.5-10.5c4.5-1.9,9.1-4,13.7-6.1s9.4-4.2,14.1-6.4l14-6.8L241,687l12.3-6.8,10.9-6.6c3.2-2.2,6.3-4.1,8.9-6s4.9-3.5,6.8-4.9l4.2-3.4,1.5-1.1v.2h-.2a51.7,51.7,0,0,1-4.2,5.1h0l-.9,1-4,3.9-6,5.7-3.2,2.6v.2l-1.1.8-3.1,2.4-4.3,3.3-2,1.4c-3.8,2.6-7.9,5.4-12.3,8.1s-9,5.3-13.7,7.8-9.6,4.9-14.4,7.2-9.8,4.4-14.6,6.4-9.6,3.8-14.2,5.6-9.1,3.2-13.4,4.6-8.2,2.5-11.9,3.6l-2.2.6-2.9.9L152,743.7l2.5-1,23.9-9.6,13.4-5.6,13.7-6.1c4.6-2.1,9.2-4.2,13.6-6.4s8.9-4.3,13-6.5l12-6.5,10.5-6.3,7-4.7,6.4-4.5,1.8-1.4,4.1-3.2,1.4-1.1h-.1v.2c-1.4,1.8-2.6,3.3-4.1,4.9s-3,3-4.7,4.7-3.2,3.2-6,5.7l-3.1,2.5-4,3.1c-1.3,1-2.4,1.9-4.4,3.3l-1.9,1.3c-3.7,2.6-7.8,5.2-12.1,7.7s-8.7,5.1-13.3,7.4-9.3,4.7-14.1,6.8-9.5,4.1-14.2,6.1-9.4,3.5-13.9,5.1-8.8,2.9-13,4.2-8,2.3-11.6,3.3l-2.4.6c-.6.1-1.4,1.1-2.4,2-.8,2.6-1.7,5.1-2.6,7.7l8.6-3.8c3.7-1.6,7.7-3.5,11.8-5.2l12.7-5.6c4.3-1.8,8.7-3.7,13-5.7l13.1-5.8,12.5-5.7,11.6-5.6,5.4-2.7,5-2.5,4.5-2.5c1.5-.7,2.8-1.5,4.1-2.2l3.5-2.2,3-1.8,1.9-1.3,1.7-1.2.4-.4,1.1-.7c.1-.1.2-.1,0,.1l-.8.9a34,34,0,0,1-3.4,3.5c-1.5,1.5-3,2.7-4.8,4.2l-6.2,4.9-3.1,2.1c-3.1,2.2-6.5,4.3-10.2,6.5S225.1,729.3,221,731.4Z" transform="translate(-111.1 -341.3)" style="fill:#e8e207"/><path d="M162.2,789.5c3.6-1.5,7.3-3,10.9-4.7s9.1-4.2,13.6-6.4,8.9-4.4,13.2-6.7,8.5-4.7,12.5-7,7.9-4.7,11.4-7l5.2-3.5,4.2-3h.2c.1-.2,2.8-2.1,5.8-4.4l2.2-1.9,2.1-1.7a41.8,41.8,0,0,0,3.3-3.1l2.7-2.6.6-.8.7-.7c.2-.2.1-.2,0-.1s-.2,0-1.1.6l-4.3,2.7-6.7,3.8c-2.6,1.5-5.5,3.1-8.8,4.8l-10.3,5.5L208,759.1l-12.5,6.2-13.3,6.6-12.9,6.3-12.5,6.1-9.9,4.9v.3Z" transform="translate(-111.1 -341.3)" style="fill:#e8e207"/><path d="M219.2,789.5l5.3-4.7,2.5-2.4c2.1-2.1,3.9-4.1,5.3-5.8a27.1,27.1,0,0,0,3-3.7,12.9,12.9,0,0,0,1.3-1.8l.7-1,.4-.6c.1-.2,0-.2-.1-.1l-1.1.9-.4.4-1.7,1.4-1.9,1.5-2.9,2.2-3.4,2.4c-1.3.9-2.6,1.9-4.1,2.8s-3,2.1-4.7,3.1l-4.9,3.1-3.7,2.3Z" transform="translate(-111.1 -341.3)" style="fill:#e8e207"/><path d="M197.6,789.5l3.7-2.4,6-4c2.7-1.8,5.3-3.7,7.9-5.6l2.4-1.8q5.1-3.7,9.6-7.5a130.3,130.3,0,0,0,10.6-9.7,27.2,27.2,0,0,0,2.4-2.4c2-2.1,3.6-4,5-5.7s2.1-2.6,2.8-3.6l1.2-1.8.6-1,.4-.6c.1-.2,0-.1-.1,0l-1.2,1-.4.4-1.8,1.5-1.9,1.6-3,2.3a35.5,35.5,0,0,1-3.5,2.7l-4.2,3-4.8,3.3-5.1,3.4-5.7,3.6c-3.8,2.4-7.9,4.9-12.2,7.4s-8.7,5.2-13.2,7.8l-13.8,7.9-.3.2Z" transform="translate(-111.1 -341.3)" style="fill:#e8e207"/></svg>