<?xml version="1.0" encoding="UTF-8"?>
<!DOCTYPE svg PUBLIC "-//W3C//DTD SVG 1.1//EN" "http://www.w3.org/Graphics/SVG/1.1/DTD/svg11.dtd">
<!-- Creator: CorelDRAW 2019 (64-Bit) -->
<svg xmlns="http://www.w3.org/2000/svg" xml:space="preserve" width="500px" height="419px" version="1.1" shape-rendering="geometricPrecision" text-rendering="geometricPrecision" image-rendering="optimizeQuality" fill-rule="evenodd" clip-rule="evenodd"
viewBox="0 0 500 418.52"
 xmlns:xlink="http://www.w3.org/1999/xlink"
 xmlns:xodm="http://www.corel.com/coreldraw/odm/2003">
 <g id="Слой_x0020_1">
  <metadata id="CorelCorpID_0Corel-Layer"/>
  <path fill="#2DA3B1" d="M-0.24 206.99c0,20.3 73.09,0.94 73.09,45.49 0,24.29 -34.33,63.21 -45.68,86.01 -9.49,19.05 -18.81,38.31 0.19,56.89 16.75,16.38 48.86,22.53 82.34,23.35l16.35 0c28.17,-0.65 55.71,-4.49 74.36,-8.62 56.4,-12.5 96.09,-29.35 142.87,-60.36 12.72,-8.43 22.77,-16.57 34.51,-26.02l16.29 -14.38c33.29,-33.53 52.67,-53.28 77.61,-94.75 2.72,-4.53 4.76,-8.92 7.35,-13.36 6.93,-11.9 20.72,-42.38 20.72,-60.42 0,-15.75 -2.13,-24.81 -20.76,-24.81 -11.12,0 -28.88,6.51 -38.86,9.28 -27.7,7.68 -60.1,17.2 -81.39,-8.63 -7.66,-9.29 -11.43,-23.64 -13.24,-38.11 -2.39,-19.21 -0.9,-52.79 -8.51,-67.61 -3.44,-6.71 -8.16,-9.93 -13.59,-10.73l-5.88 0c-21.32,2.75 -49.59,32.77 -58.15,39.35 -3.7,2.85 -5.38,5.31 -8.66,7.92l-44.03 38.04c-21.91,17.43 -45.95,30.64 -69.92,44.51l-98.8 48.84c-8.54,4.25 -38.21,17.44 -38.21,28.12z"/>
 </g>
</svg>
