<svg xmlns="http://www.w3.org/2000/svg" viewBox="0 0 229.9 265.6"><title>lady-violet-leaf-3</title><path d="M626.8,798.7c-2.9-2.3-3-5.9-6.7-7.9s-22.8-50.4-29.2-64.2c-1-2.3.3-5.8,2.8-6.5,8.1-2.4,16.4-2.8,24.7-2.5l-10.9-3.8c-9.6-3.6-26-9.4-26-9.4.1-6.4-4.2-18.6.4-17.6,26.8,5.7,38.7,12.5,55.6,15.1l-2.6-1.5a124.5,124.5,0,0,0-18.6-8.4c-11.6-4.4-23.6-7.6-35.1-12.4a3.8,3.8,0,0,1-1.5-.9,3.9,3.9,0,0,1-4.2-4.2c0-26.4-3.5-52.6-5.6-78.8-1-12.7-1-25.4,2-37.9,2.1-8.3,6.5-20.6,14.9-23.9,23.3,73.1,76.6,188.3,124.9,264.8Z" transform="translate(-569.3 -533.1)" style="fill:#b20084"/><path d="M799.2,798.7H711.7C663.4,722.2,610.1,607,586.8,533.9a13.3,13.3,0,0,1,9.8.2c9.6,3.5,16.6,14,22.7,21.5,7.8,9.6,15.2,19.7,23.4,28.9-3.9,16.3-5.7,42.1-3.6,35.4s7.6-20.8,11.5-27.4c6.7,6.3,14,12,20.4,18.7,7.9,8,15.3,16.5,21.1,26.1s13.8,20.8,13.8,20.8c-2.4,13.1-6.7,24.2-9.1,32.7,8.8-8.2,17.3-28,21.9-23.1,6.9,7.5,12.2,11.4,19.4,17.8,11.4,10.1,18,23.2,25.5,36.2l1.5,2.5a29,29,0,0,1,1.9,2.9c3.3,4.8,7,9.3,10.8,13.9s8.2,11.4,9.9,18.6a4.1,4.1,0,0,1-1,4l-.2.4c-3.4,8.9-8.5,16.8-14,24.5l2.9-1.5c7.3-3.7,17.1-3.4,23.3-13l.5.6Z" transform="translate(-569.3 -533.1)" style="fill:#7a0055"/></svg>