<?xml version="1.0" encoding="UTF-8"?>
<!DOCTYPE svg PUBLIC "-//W3C//DTD SVG 1.1//EN" "http://www.w3.org/Graphics/SVG/1.1/DTD/svg11.dtd">
<!-- Creator: CorelDRAW 2019 (64-Bit) -->
<svg xmlns="http://www.w3.org/2000/svg" xml:space="preserve" width="2244px" height="3012px" version="1.1" shape-rendering="geometricPrecision" text-rendering="geometricPrecision" image-rendering="optimizeQuality" fill-rule="evenodd" clip-rule="evenodd"
viewBox="0 0 2244 3011.68"
 xmlns:xlink="http://www.w3.org/1999/xlink"
 xmlns:xodm="http://www.corel.com/coreldraw/odm/2003">
 <g id="Слой_x0020_1">
  <metadata id="CorelCorpID_0Corel-Layer"/>
  <path fill="#2DA2B1" d="M944.4 223.63c0,43.54 -1.14,90.32 5.17,132.56 12.32,82.42 10.73,182.26 -93.72,182.26 -34.96,0 -71.8,-25.04 -93.23,-41.23l-76.54 -61.19c-86.84,-70.94 -178.24,-125.46 -288.74,-54.39 -24.32,15.64 -55.62,42.6 -73.25,64.49 -133.89,166.29 -202.83,420.43 -202.83,630.12 0,120.98 1.57,211.18 33.47,327.25 21.2,77.15 51.75,134.98 84.59,200.71 3.72,7.44 6.5,13.68 10.92,21.88l38.13 70.09c46.7,80.35 105.08,223.17 105.08,324.5 0,149.58 -34.86,220.76 -109.51,333.19l-245.62 292.19c-117.48,159.57 52.7,266.45 194.02,309.63 267.36,81.68 615.35,67.68 885.87,-0.42 101.9,-25.65 203.2,-56.49 298.51,-98.28 57.96,-25.42 107.11,-48.62 162.87,-79.81 67.41,-37.71 131.22,-79.45 192.62,-125.48 59.75,-44.78 122.53,-94.01 174.82,-146.56 28.78,-28.92 17.95,-12.22 59.1,-58.95 27.05,-30.72 44.1,-44.92 75.8,-84.89 74.41,-93.82 161.12,-233.95 161.12,-363.58 0,-132.43 -27.24,-186.22 -102.46,-271.38 -31.1,-35.21 -69.91,-70.36 -107.43,-99.17l-35.3 -30.29c-12.86,-12.87 -23.15,-19.83 -36.03,-32.83 -150.89,-152.26 -169.99,-298.59 -117.58,-509.46 26.21,-105.46 71.04,-197.55 113.53,-293.11 7.18,-16.15 14.17,-28.63 21.97,-46.9 3.71,-8.7 7.1,-14.42 10.83,-21.96l51.95 -121.85c9.39,-25.24 26.71,-79.27 26.71,-111.03 0,-57.52 -35.28,-98.38 -91.83,-98.38 -102.03,0 -130.18,15.8 -219.99,25.97 -65.11,7.38 -130.52,8.46 -193.25,-9.53 -143.05,-41.05 -122.8,-163.36 -209.83,-295.19l-23.48 -28.99c-61.4,-67.15 -155.98,-62.52 -235.15,-32.85 -28.93,10.85 -53.25,22.63 -77.34,40.72 -40.66,30.52 -73.97,92.51 -73.97,162.14z"/>
 </g>
</svg>
