<svg xmlns="http://www.w3.org/2000/svg" viewBox="0 0 194.1 380.8"><title>lady-violet-leaf</title><path d="M156.3,458.8l-1.6.2c-1.7.3-4.1.8-7.4,1.2s-7,1-11.4,1.4l-15.1,1.5L103,464.4l-20.1,1.1-21.4,1c-4,.1-35.6-3.3-61.5-5.9v13.1c25.3,2.7,66.2,7.4,69.3,7.2,7.4-.6,14.6-1.4,21.5-2.3s13.5-2,19.6-3.2l8.9-1.9,7.2-1.9h.3l10-3,3.9-1.5,3.6-1.3,5.5-2.6,4.6-2.6,1.1-.7c1.1-.8,1.2-.8,1.2-.9S156.8,458.7,156.3,458.8Z" transform="translate(0 -149.6)" style="fill:#a123db"/><path d="M162.5,426l-1.5.2c-1.7.3-4.2.7-7.5,1s-7,.9-11.5,1.2-9.6.8-15.1,1.3l-17.7,1.1-20,1.1-21.2,1-22.7,1.2-22,1c-1.6.1-11.4-.4-23.3-1.1v13.8c15.3,1.1,29.6,2,30.7,2l23-.6c7.5-.4,15.1-.8,22.4-1.5s14.5-1.5,21.3-2.3,13.3-2.1,19.3-3.3c3.1-.6,6.1-1.2,8.9-1.9l7.2-1.8.8-.2c5-1.4,9.4-2.8,13.3-4.2l3.6-1.3,5.5-2.5,4.6-2.5,1.2-.8,1.1-.8C163,426,163,425.9,162.5,426Z" transform="translate(0 -149.6)" style="fill:#a123db"/><path d="M139.6,513.5l-1.8.3-7.9,1.1c-3.3.4-7.4.9-12.2,1.3s-10.3.8-16.2,1.3c-1.7,0-48.1,5.6-101.5.8v8.8c52,3.8,72.6,5.4,106.7-1.1l.8-.2c5.6-1.3,12.1-3.4,20.1-5.9l1.6-.7,1.6-.7,1.6-.8,4.9-2.4,1.3-.8c1.3-.7,1.3-.8,1.4-.9S140.1,513.4,139.6,513.5Z" transform="translate(0 -149.6)" style="fill:#a123db"/><path d="M194.1,258.4h-.2l-1.1.4-4.6,1.7-7.3,2.3-9.8,2.8-11.7,3.1-13.3,3.1L131.9,275l-15.3,3.4-14.8,3.2L95.2,283l8.9-12.3,2.7-.7,14.4-4.7c4.8-1.6,9.3-3.6,13.8-5.3s8.5-4,12.6-5.9a123.5,123.5,0,0,0,11-6.1c3.4-2.1,6.3-4.3,9-6.3a72.3,72.3,0,0,0,6.8-5.8,35.7,35.7,0,0,0,4.4-5c2.3-2.9,2.3-3.2,2.4-3.5s0-.6-1.1,0l-3.6,2a59.3,59.3,0,0,1-6.4,3.4c-2.6,1.3-5.3,2.8-8.6,4.2L151,241.6l-11.9,4.9-23.7,8.6L128.5,237c2.9-1.3,5.9-2.7,8.8-4.2s6.5-3.5,9.6-5.4,6-3.8,8.7-5.7a76.6,76.6,0,0,0,7.4-5.9l3.2-3a30.7,30.7,0,0,0,2.5-2.6h.1l3.2-3.8,1.1-1.7,1.1-1.5a23.7,23.7,0,0,0,1.4-2.7c.1,0,.5-1.2,1.1-2.4l.2-.7c.2-.7.2-.8.1-.8h-.2l-.6.5a34.8,34.8,0,0,1-2.8,2.2c-1.2.9-2.7,2-4.5,3.1s-3.9,2.6-6.2,4l-7.4,4.4-8.4,4.7-4.7,2.5c21.9-30.6,39.1-55.1,39.6-55.8s4.6-13.3,2.4-11.3-4.6,4.1-6.9,6.6a100.4,100.4,0,0,0-7,8.4c-2.2,3.2-4.8,6.3-6.8,9.9s-4.4,7.2-6.4,11l-.5,1s-4.7,7.9-5.4,8.5c-2.4,3.2-11.4,19.3-9,8.5.6-2.6,1.5-4.4,3.7-12.1s1.6-7.7,2-9.2l.8-3.7c.9-3.6,1.8-7.1,2.5-10.3s1.8-6,2.5-8.5,1.5-4.7,2.1-6.4c1.3-3.5,1.3-3.9,1.3-4.3s0-.8-.7-.2l-2.4,2.2a21.9,21.9,0,0,0-3.8,4.4,58,58,0,0,0-4.4,6.6,82.4,82.4,0,0,0-4.3,8.9c-1.3,3.4-2.8,6.8-4,10.8s-2.5,7.9-3.5,12.4-1.9,8.8-2.7,13.5c-.1.6-.2.9-.2,1-5.6,8.9-11.1,18.3-17.1,28a2.9,2.9,0,0,0,.2-.9l.2-1.8c.4-3.9.9-7.8,1.4-11.7s.9-8.2,1.4-12.2l1.5-11.3c.5-3.6,1-7.2,1.5-10.5s1-6.4,1.5-9.3,1-5.5,1.5-7.8.9-4.2,1.3-5.8.8-2.8,1-3.7l.3-.9c0-.1,0-.2-.2-.1l-.5.4-.5.5-1.8,1.8-1.9,2.3-.9,1.6-1.1,1.7c-1.2,2.5-2.2,4.6-2.3,4.7h0l-1.5,3.4c-.5,1.4-1.1,2.8-1.6,4.3-1,3-1.9,6.3-2.7,9.8s-1.7,7.2-2.3,11.1-1.2,7.8-1.7,11.9-.8,8.3-1.1,12.5-.5,8.2-.6,12.2-.1,7.7-.1,11.4l-1.2,1.8c-3.9,5.5-7.8,11.2-11.8,17a10.4,10.4,0,0,0,.2-1.5v-3.1c-.1-5.4-.1-10,0-15.7s.1-10.3.2-22.2l.2-10.1c.1-5,.3-9.8.5-14.4s.6-8.7.8-12.6.7-7.3,1-10.5.7-5.8,1-8a41.8,41.8,0,0,0,.6-5.3c-.1-.5-.8,0-2.5,3.3a28.9,28.9,0,0,0-2.9,6.3c-.9,2.6-2.1,5.5-3,9s-1.9,7.3-2.6,11.5-1.5,8.8-2,13.7-1.1,9.9-1.2,15.4-.4,10.7-.4,16.3.1,11.3.3,16.9.7,11.3,1,16.7l.3,4.6a12.3,12.3,0,0,0,.2,2l-8,12a60.4,60.4,0,0,0-.3-9.3l-.6-6.2c-.5-5.4-1-10.8-1.6-16.4s-1.2-11.3-1.7-16.9-1.2-11.7-1.7-17.5-1.1-11-1.5-16.3-.9-10.3-1.3-15.2-.6-9.3-.9-13.4-.4-8.1-.5-11.4-.2-6.2-.2-8.6,0-4.2,0-5.5a4.3,4.3,0,0,0,0-1.4c0-.2,0-.3-.1-.1l-.4.8-.4.8a30.4,30.4,0,0,1-1.3,3.1l-1.2,4-.6,2.6-.6,2.7c-.5,3.8-1,7.1-1,7.3v.2l-.6,5.3c-.2,2.1-.3,4.3-.4,6.6-.2,4.5-.3,9.4-.2,14.6s.2,10.5.6,16.2.8,11.4,1.4,17.2,1.4,11.9,2.1,17.8,1.7,11.6,2.7,17.2,1.9,11.2,2.9,16.5l.9,4.6c.8,4,1.1,8,.6,9.7L57.4,322.7c-.2-1.7-.4-4-.8-6.5l-.6-5.1c-.9-6.3-1.7-12.9-2.6-19.5s-1.7-13.4-2.5-20c-1.7-13.5-3-26.7-4.4-39.2-.6-6.2-1.1-12.1-1.6-17.8s-.7-10.8-1.1-15.7-.3-9.1-.5-13.1-.2-7.3-.1-10c0-5.6-.1-6-.2-6.6s-.8.2-2.1,4.8a51.4,51.4,0,0,0-1.9,8.6c-.5,3.5-1.3,7.3-1.6,11.9s-.8,9.5-.9,14.9-.2,11.3.1,17.5.4,12.5,1.2,19.2,1.2,13.4,2,20.3,1.9,13.7,3,20.6,2.3,13.7,3.5,20.2,2.6,13.1,3.9,19.1l.5,2.5c.3,1.1.8,1.8,1.5,1.9L41.6,347.3a126.6,126.6,0,0,0,.3-30.4l-2.5-15.8c-4.3-26.5-9.7-53.3-14.4-73.7-2.2-10.2-4.3-18.7-5.6-24.7s-1.6-6.5-1.9-7.1-.9.2-1.2,5.5a204.9,204.9,0,0,0,0,22.4c.7,18.9,3.7,45,8,71.6l3.6,22.4c3.7,16.9,7.6,30.5,10,35.5l-8.2,12.8a28.5,28.5,0,0,0,.1-5l-.7-5.9c-.7-6.4-1.5-13.1-2.4-19.9s-1.8-13.7-2.8-20.6-2.2-14.7-3.3-21.9-2.2-13.5-3.3-20-2.2-12.9-3.3-19-2.1-11.6-3.1-16.9L8.2,221.8c-.9-4.4-1.5-8.1-2.1-11.2s-1-5.8-1.2-7.5a6.9,6.9,0,0,0-.3-1.8c0-.2-.1-.3-.2,0l-.3,1.1-.3,1.3c-.5,2.6-.8,4.7-.8,4.7l-.2,1.5c-.1.7-.1,1.4-.5,4.4l-.2,3.6c-.2,3.9-.2,6-.2,8.7s-.1,4.8-.1,5.1v.3c0,2.3,0,4.6.1,7s.1,5.7.3,8.7c.3,5.8.7,12.1,1.2,18.6s1.2,13.2,2.1,20.2,1.7,13.9,2.7,21,2.3,14.5,3.5,21.7,2.4,13.7,3.7,20.4,2.7,13.2,4.1,19.4l1.2,5.7a22.7,22.7,0,0,0,1.1,3.4l-11.1,17c-.2-3.3-.7-8.9-1.6-14.5l-1.5-8.7c-1.2-6.9-2.5-14.1-3.9-21.3S1.3,337.7,0,331.2v59L1.1,394c.7,2.6,2.1,6.8,3.5,10.5L.2,411.2H0v15H1.9c6.6.2,13.6.4,20.7.3s14.4,0,21.8-.2,15.2-.7,22.8-1.2,14.9-1.1,22.2-1.9,14.3-1.7,21-2.7,13.2-2.2,19.2-3.5l8.8-2,7.1-1.9h.3l10-3,3.7-1.4,3.6-1.3,5.5-2.5a51.9,51.9,0,0,0,4.7-2.5l1.1-.7c1.1-.7,1.1-.8,1.2-.9s0-.2-.4-.1l-1.6.2c-1.7.3-4.2.7-7.6,1l-11.5,1c-4.5.5-9.6.8-15.2,1.3l-17.7,1.1-19.8,1.3-21,1.3L58,409.4l-21.6,1.5-20.9,1.7-7.8.7H6.8l10.1-15.1H17c6.1,0,12.5,0,19.1-.3s13.3-.4,20.1-.8,14.1-.9,21.1-1.5,13.7-1.4,20.4-2.3,13.1-1.8,19.4-2.9,12.1-2.2,17.6-3.4l8.2-2,2.3-.6,4.8-1.3h.2c4.7-1.3,8.8-2.7,12.3-4s6.1-2.4,8.4-3.5h.3a40.5,40.5,0,0,0,5.2-2.9c1-.7,1-.8,1-.8s.1-.2-.3-.1l-1.5.2-7.1.8-10.8.9-14.3,1-16.5,1.2L108.5,377l-19.4,1.6-21.2,1.8-20,2-19.2,2.1-2.9.4,8.3-12.5,16.2-1.3c6-.6,12.1-1.2,18.3-2s13-1.7,19.4-2.7,12.6-2.1,18.7-3.3,12-2.5,17.7-3.8,11.1-2.7,16.1-4.2l7.4-2.2,6-2,2.2-.8,6.4-2.4,3.2-1.4a37.1,37.1,0,0,0,5.3-2.4l2.5-1.2h0l3.8-2.2,1-.8a3.8,3.8,0,0,0,.9-.8c0-.1,0-.2-.4-.1l-1.3.3-6.7.9L160.7,341l-13.4,1.5c-4.8.4-9.9,1-15.3,1.6l-17,2.1-17.9,2.4-19.6,3-18.3,3L44,357.5,56.3,339a85.5,85.5,0,0,0,21.1.9l20.1-2.7c23.7-3.3,46.7-7.8,62.9-12.7a131,131,0,0,0,19-6.7c4.4-1.9,4.5-2.2,4.6-2.6s.3-.7-1.4-.5l-5.4.3c-5.5.3-13.4.6-22.6,1.2-18.7,1.1-43,3.3-66.8,6.5l-14.1,2c-3.1.5-6.2,1.2-9.1,1.9.9-1.5,1.9-2.8,2.7-4.2,2.5-.1,4.9-.4,7.4-.7,5.9-.6,12.1-1.2,18.2-2.2s12.2-1.9,18.3-2.9,11.9-2.6,17.8-3.8,11.2-3.1,16.5-4.5,10.2-3.4,14.9-5,8.6-3.7,12.4-5.4a100.9,100.9,0,0,0,9.6-5.3,42.5,42.5,0,0,0,6.7-4.6c3.5-2.8,3.6-3.1,3.8-3.4s.2-.7-1.3-.2l-4.7,1.7c-2.3.8-5,1.9-8.5,2.8s-7.1,2.2-11.3,3.3l-13.6,3.6L138,299.3c-11,2.2-22.6,4.8-34.5,6.8q-8.9,1.8-17.7,3.3l-11,1.9c3-4.5,5-7.5,5.5-8.1l6.8-9.2h0l8.4-1c5-.7,10.2-1.4,15.4-2.3s10.5-1.9,15.7-3,10.2-2.3,15-3.6,9.5-2.7,13.9-4.1a122.8,122.8,0,0,0,12.3-4.6l5.5-2.3,4.3-2.2h.1l5.9-3.3,2.2-1.5,2-1.3,3-2.5,2.3-2.3.5-.7C194.1,258.6,194.1,258.5,194.1,258.4Z" transform="translate(0 -149.6)" style="fill:#a123db"/><path d="M144.8,488.5l-1.6.2-7.5,1.1L124.2,491l-15.3,1.2-17.9,1c-3.5.1-39,1.7-91-1.4v11.6c58.8,3.1,96.1,1.2,98.1.8l9-1.7,7.4-1.8h.2l10.2-2.8,3.9-1.4,3.7-1.2,5.6-2.6,4.7-2.4,1.2-.8c1.1-.7,1.1-.8,1.2-.9S145.3,488.4,144.8,488.5Z" transform="translate(0 -149.6)" style="fill:#a123db"/></svg>