<svg xmlns="http://www.w3.org/2000/svg" viewBox="0 0 343.4 258.5"><title>lady-red-leaf</title><path d="M343.3,699l-.2-1.7-1.3-.9c-1.2-.8-2.6-.5-4.2.4s-60.3,34.4-108,64.6c38.6-43.7,86.9-104,91.5-113.9a4.8,4.8,0,0,0,.4-3.3l-.3-1.5-1.1-.8c-1.8-1.2-3.6.3-4.6,1.2S250.1,705,208.8,748.3c32.4-53.4,72.7-127.8,75.7-138.3.7-2.4-.2-4.3-1.3-5s-3.9.8-4.9,2-61.4,85.5-95,138.2c24.1-58.9,58.3-156.6,59.7-168.7.3-2.8-1.1-4-1.5-4.3-2.5-1.7-4.3,1.7-5,2.9s-50.3,104-74.7,162.9c12.6-60.9,29.7-179.9,30.5-185.5.1-1.7.5-4.9-1.6-6.2s-2.8-.6-4,1.5c-5,9.6-28,97.5-41.7,161,1.4-65-.6-160.1-.6-161.3s-.3-4.1-1.9-5.3l-1-.6h-.1l-1.3.5a3.9,3.9,0,0,0-1.9,2.5c-3.7,11.4-13,111.8-15.8,175.7-8-61.4-25.9-158.2-26.8-163.1-.4-1.9-.9-3.6-2.2-4.4l-1.2-.8-1.4.7a4.4,4.4,0,0,0-1.7,3.1c-1.9,11.1,3.4,101.1,10.2,163.6C81.9,666,52.3,589.6,50.7,585.6a6.8,6.8,0,0,0-2.1-3.1,2.4,2.4,0,0,0-2.9,0c-.6.4-1.5,1.4-1.5,3.6-.3,11.1,20,97.9,36.2,151.8-27-46.2-68.2-109.3-68.7-110.1a7.4,7.4,0,0,0-1.9-2,2.4,2.4,0,0,0-3.3.3,4.6,4.6,0,0,0-1,4.2c2.1,11.1,37.4,85.9,62.2,131.9-21-18.8-48-41.1-67.7-57.1v22.6c17,18.9,38,41.1,55.9,58.7-16.1-9.3-37-20.1-55.9-29.6v23.6l14.9,10.2c4.2,2.9,9.1,6.1,14.1,9.4H281c4.2-2.1,8.2-4.3,12.2-6.4l14.9-27.1c-23.6,8.3-54.4,19.3-79.3,29.4,47.1-34.3,107.9-84.6,113.7-93.3A4.8,4.8,0,0,0,343.3,699Z" transform="translate(0 -541.5)" style="fill:#960230"/></svg>