<svg xmlns="http://www.w3.org/2000/svg" viewBox="0 0 250.7 253.2"><title>trendy-red-leaf</title><path d="M422,463.8c1.7-6.3,14.4-14.9,18-18.1a190.8,190.8,0,0,1,23.9-17.9c7.4-4.8,14.9-7.9,21.5-15.3s8.2-15.9,5.4-26c-2.2-7.9-4.3-18.8-9.7-24.5-1.1,8-11.6,19.1-17.2,25.3-7.5,8.5-14.9,17.5-22.5,26.3s-11.8,18.8-22.6,21.9c-13.9,4-8.7-5.1-3.1-15,10.7-18.7,27.5-34.8,40-52.5,5.2-7.4,15.7-23.5,15.6-32.9-.1-3.5-4-12.2-5.2-16s-5.1-9.8-7.3-11.4c-5,3.8-12.3,17.8-14.6,23.2a90.9,90.9,0,0,1-10.8,19.2c5.8-13.5,12.2-30.4,18.5-48.6s-8.4-29.9-15.9-38.3c-3.3,4.5-4.5,16.4-5.6,22.7-1.7,9.3-3.1,16.1-7.1,25.7-5.4,12.8-15.9,39.6-30.7,38.1-4.9-16.8,13.7-47.9,22-63.1,15.2-27.8-17.7-73.6-24.4-75.5L355.8,463.8Zm-15.2-77c2.7,5.5-4.5,18.4-9.8,22.8-12.1,9.7-15.4.3-6.8-10.7C396.1,391.2,401.1,379.9,406.8,386.8Z" transform="translate(-241.5 -210.6)" style="fill:#ea005f"/><path d="M487.8,426.4c-9.5,12.6-28.2,30.5-41.2,36.2l-2.5,1.2h36.3C486.2,451.4,492.3,434.1,487.8,426.4Z" transform="translate(-241.5 -210.6)" style="fill:#ea005f"/><path d="M268.5,450.6c3.8,3.5,9.8,7.8,13.6,13.2h73.7l34.4-252.7c-16.5-4.6-44.9,22.2-54.8,38.6-13.7,22.8,7.5,52.8,11.6,72.4,1.7,8.1,12.1,29,8.9,38.6-5.6,17-17.9,1.8-22.1-5-6-9.8-9.3-24.5-9.5-38.4-.1-11.8,6.7-29.4,1.9-40.5-6.5.3-26.2,15.4-28.7,22.1s4.5,17.7,6,23.3,1.8,15.1,3,22.2c2.3,15.2,7.7,26.5,14.6,38.9,4,7.3,18.4,17.1,16.5,27.6C320.4,422,300.8,397,298.7,381c-1.7-12.7-3.8-24.9-2.3-36.9s1.6-24.1-1.1-36.8c-14.4,3-16.7,15.2-22.8,29.1-3.5,8.1-5.2,8.9-5,18s2,17.1,3.8,24.4,4.6,12.9,7,18.6,4.2,12.2,8,17.3c6.6,9,22.8,12.7,20.4,29.1-10.8-4.4-18.8-13.5-26.5-22.2-11.9-13.7-14.3-26.9-19.9-46.1-6.6,5.1-13.6,16.2-16.7,24.8-4.8,13.5-.8,19.2,5.7,28.1A145.8,145.8,0,0,0,268.5,450.6Zm82.2-165.9c-1.8-5.3,4.6-14.9,11.2-17.2s11.6,12.2,11.5,18.1-1.3,18.5-6.3,20.2S352,288.6,350.7,284.7Z" transform="translate(-241.5 -210.6)" style="fill:#c9005b"/><path d="M256.8,450.2c-.5,5.2-1.2,9.6-1.9,13.6h11.7C263.4,456.1,261,448.4,256.8,450.2Z" transform="translate(-241.5 -210.6)" style="fill:#c9005b"/></svg>