<?xml version="1.0" encoding="UTF-8"?>
<!DOCTYPE svg PUBLIC "-//W3C//DTD SVG 1.1//EN" "http://www.w3.org/Graphics/SVG/1.1/DTD/svg11.dtd">
<!-- Creator: CorelDRAW 2019 (64-Bit) -->
<svg xmlns="http://www.w3.org/2000/svg" xml:space="preserve" width="1594px" height="1335px" version="1.1" shape-rendering="geometricPrecision" text-rendering="geometricPrecision" image-rendering="optimizeQuality" fill-rule="evenodd" clip-rule="evenodd"
viewBox="0 0 1594 1334.24"
 xmlns:xlink="http://www.w3.org/1999/xlink"
 xmlns:xodm="http://www.corel.com/coreldraw/odm/2003">
 <g id="Слой_x0020_1">
  <metadata id="CorelCorpID_0Corel-Layer"/>
  <path fill="#39B8C9" d="M380.53 1332.28c-94,0 -323.03,-21.34 -323.03,-142.39 0,-87.14 74.05,-175.24 117.59,-241.5 39.6,-60.26 108.67,-176.73 14.87,-225.29 -33.68,-17.43 -59.27,-21.19 -101.44,-28.19 -25.94,-4.31 -92.47,-10.1 -85.28,-38.66 7.95,-31.56 120.41,-83.4 155.73,-100.99l259.48 -126.57c103.83,-57.87 182.35,-103.27 271.27,-175.48l222.26 -195.29c7.33,-5.41 12.65,-9.39 19.68,-14.68 83.57,-63.02 143.84,-56.32 155.44,60.68 5.24,52.83 5.16,106.05 11.43,157.37 11.48,94.01 59.89,169.19 166.38,169.19 109.87,0 275.13,-94.13 313.69,-38.15 46.51,67.53 -54.45,256.37 -100.26,324.52 -81.06,120.63 -123.59,167.2 -224.63,266.76 -28.21,27.79 -92.35,77.86 -126.48,103.44 -12.42,9.31 -25.09,18.1 -38.64,27.45 -137.84,95.12 -300.96,158.87 -468.65,192.51 -68.23,13.69 -168.85,25.27 -239.41,25.27zm24.22 2.63l-58.01 0c-105.62,-2.9 -206.53,-22.62 -259.51,-74.43 -104.22,-101.9 56.88,-253.4 107.97,-352.71 13.96,-27.13 37.05,-62.93 37.05,-102.86 0,-142.01 -233.01,-80.3 -233.01,-145.02 0,-34.05 94.59,-76.11 121.8,-89.66 22.81,-11.35 47.05,-24.94 71.13,-34.65l277.57 -140.19c64.26,-35.79 165.16,-98.61 218.63,-146.17l193.2 -171.49c38.48,-33.4 90.3,-77.05 145.04,-77.05 80.74,0 65.85,177.25 74.89,249.75 37.95,304.48 319.35,119.4 425.55,119.4 58.88,0 66.19,27.61 66.19,79.11 0,100.01 -103.24,265.78 -167.16,350.34l-43.51 54.24c-31.98,40.97 -87.35,93.53 -126.24,132.7l-51.93 45.85c-37.44,30.11 -69.46,56.05 -110.01,82.93 -149.14,98.88 -275.69,152.59 -455.49,192.43 -58.88,13.05 -145.4,25.2 -234.15,27.48z"/>
 </g>
</svg>
