<svg xmlns="http://www.w3.org/2000/svg" 
xmlSpace="preserve" 
width="600px" 
height="281px" 
version="1.1" 

shapeRendering="geometricPrecision" 
textRendering="geometricPrecision" 
imageRendering="optimizeQuality" 
fillRule="evenodd" 
clipRule="evenodd"
viewBox="0 0 600 281.19"
 xmlnsXlink="http://www.w3.org/1999/xlink"
 xmlnsXodm="http://www.corel.com/coreldraw/odm/2003">
 <g id="Слой_x0020_1">
  <metadata id="CorelCorpID_0Corel-Layer"/>
  <g id="_2765337544848">
   <path fill="#FEFEFE" 
   d="M374.59 75.14l7.43 0 6.97 35.77c2.32,11.6 4.61,23.67 7.02,35.72l12.28 62.05c0.62,3.1 1.61,6.4 1.61,9.55l11.15 0 5 -24.72c1.65,-8.25 3.38,-16.28 5.06,-24.68 1.59,-7.97 3.13,-16.4 5.05,-24.69l4.71 -25.02c2,1.46 0.55,-0.99 1.8,5.63l18.02 93.48 10.53 0 3.27 -17.79c3.85,-22.51 9.69,-48.12 13.82,-71.05 1.14,-6.34 2.07,-12.12 3.19,-17.86 1.22,-6.21 2.19,-11.55 3.41,-17.65l3.57 -18.12 43.36 0c7.46,0 9.65,11.6 11.55,18.18 2.08,7.15 4.51,17.17 5.17,25.18 2.76,0 5.58,0.83 5.58,-1.86l0 -45.84c-8.49,0 -52.65,0.42 -59.02,-0.45 -2.95,-0.4 -6.11,-0.16 -9.12,-0.17 -6.05,-0.02 -8.05,-1.17 -8.05,3.1 0,2.8 3.85,1.86 6.81,1.86 -0.29,3.5 -1.72,8.93 -2.43,12.44l-15.17 77.12c-0.47,2.36 -0.77,3.8 -1.24,6.19 -0.17,0.86 -0.4,2.14 -0.6,3.12l-1 3.34c-0.27,-3.26 -1.69,-9.31 -2.32,-12.55l-7.23 -38.61c-1.76,-8.66 -3.36,-16.97 -4.78,-25.57l-3.64 -19.29c-0.38,-2.31 -1.05,-4.59 -1.23,-6.81l9.91 0c0,-3.51 0.48,-4.96 -1.86,-4.96l-39.03 0 0 4.96c11.1,0 8.45,-2.64 11.41,13.98 3.57,20 4.18,11.32 -0.41,34.18l-7.13 36.86c-0.37,1.85 -2.86,16.83 -3.87,18.43l-9.96 -51.37c-1.73,-8.61 -3.3,-17.12 -5.06,-25.91 -0.95,-4.74 -4.8,-22.41 -4.8,-26.17 9,0 8.67,0.73 8.67,-3.1 0,-1.43 -0.43,-1.86 -1.86,-1.86l-36.54 0 0 4.96z"/>
   <path fill="#FEFEFE" 
   d="M588.92 272.74l-237.87 0c-2.89,0 -4.34,-1.44 -4.34,-4.33l0 -254.6c0,-3.19 2.58,-4.95 5.58,-4.95l236.63 0c2.01,0 3.71,2.69 3.71,4.95l0 253.98c0,2.26 -1.7,4.95 -3.71,4.95zm-246.55 -261.41l0 258.94c0,3.64 3.71,7.43 8.68,7.43l236.63 0c2.9,0 5.21,-1.01 6.67,-2.62 1.46,-1.62 2.62,-3.76 2.62,-6.67l0 -256.46c0,-3.79 -4.25,-8.05 -8.05,-8.05l-237.87 0c-4.97,0 -8.68,3.79 -8.68,7.43z"/>
   <path fill="#FEFEFE" 
   d="M17.16 102.39l13.01 0 11.15 -59.46c2.22,9.51 3.69,19.88 5.63,29.67 0.96,4.81 1.64,9.57 2.68,14.67 1.06,5.2 1.71,10.26 2.84,15.12l12.39 0c0,-3.91 1,-8.02 1.59,-12.03l12.65 -83.98 -13.62 0 -3.83 29c-0.73,5.97 -3.61,25.05 -3.61,29.85 -1.32,-2.09 -5.17,-25.64 -5.83,-28.86 -1.08,-5.29 -5.32,-26.37 -5.32,-29.99l-11.15 0c-0.05,2.46 -0.82,5.01 -1.29,7.37l-9.24 51.48c-0.57,-0.91 0.07,0.64 -0.6,-1.26 -1.02,-2.95 -6.32,-50.07 -8.07,-57.59l-13.63 0c0.2,8.81 14.25,88.73 14.25,96.01z"/>
   <path fill="#FEFEFE" 
   d="M497.24 121.6l0 92.3c-10.52,0 -9.29,-1.06 -9.29,4.95l42.12 0c0,-6.21 1.64,-4.95 -12.39,-4.95l0 -69.38c14.45,0 14.98,-1.46 18.21,11.52 1.26,5.03 3.03,11.07 3.47,16.35l4.96 0 0 -62.56 -4.34 0c-0.11,5.21 -1.89,12.63 -2.96,16.86 -3.41,13.41 -5.49,11.63 -18.72,11.63l0 -54.51 -14.25 0 -3.45 18.85c-1.04,5.57 -3.36,13.43 -3.36,18.94z"/>
   <path fill="#FEFEFE" 
   d="M175.12 49.12l-13.01 0 0 -30.35c18.92,0 22.92,-2.15 22.92,19.2 0,4.82 -3.22,11.15 -9.91,11.15zm-26.63 52.65l13.62 0 0 -40.26c17.63,0 22.31,-2.9 22.3,18.58 0,25.33 1.71,21.68 17.35,21.68 0,-7.85 -1.11,-2.59 -2.25,-7.66 -0.32,-1.41 -0.55,-5.11 -0.68,-6.13 -1.13,-8.58 2.36,-21.67 -5.56,-29.75 -1.43,-1.46 -2.96,-2.25 -3.9,-3.53 10.59,-2.83 13.79,-30.07 4.49,-40.43 -3.42,-3.8 -8.7,-7.89 -15.64,-7.89l-29.73 0 0 95.39z"/>
   <path fill="#FEFEFE" 
   d="M275.47 89.38l-3.09 0 0 -70.61c13.76,0 24.16,0.1 24.16,23.54 0,12.8 1.54,31.19 -4.11,41.11 -2.74,4.81 -9.66,5.96 -16.96,5.96zm-17.34 10.54c0,1.42 0.43,1.85 1.86,1.85 16.61,0 36.32,2.56 44.8,-12.8 5.72,-10.36 5.37,-18.26 5.37,-33.65 0,-14.57 2.33,-33.86 -12.5,-43.88 -3.62,-2.44 -8.88,-5.06 -14.75,-5.06l-24.78 0 0 93.54z"/>
   <path fill="#FEFEFE" 
   d="M97.69 70.18l0 -32.21c0,-4.83 2.63,-14.83 6.06,-17.47 8.73,-6.74 21.81,0.61 21.81,15.61l0 35.93c0,7.5 -4.01,19.44 -14.42,18.19 -5.4,-0.64 -8.57,-2.46 -10.37,-6.4 -1.38,-3 -3.08,-9.24 -3.08,-13.65zm-13.63 -32.83l0 33.45c0,40.37 50.11,43.7 54.98,5.42 1.03,-8.13 0.77,-21.42 0.77,-30.2 0,-11.3 -1.25,-20.62 -5.37,-28.08 -9.01,-16.32 -33.88,-17.16 -43.84,-2.54 -3.3,4.86 -6.54,14.03 -6.54,21.95z"/>
   <path fill="#FEFEFE" 
   d="M264.94 189.74l13.63 0 0 -42.75c0.76,0.87 0.82,0.94 1.44,2.28l16.53 40.47 13.62 0 0 -71.24 -13.62 0 0 42.74c-1.44,-1.65 -1.66,-2.85 -2.48,-4.95l-11.06 -26.74c-1.31,-3.27 -3.66,-7.74 -4.43,-11.05l-13.63 0 0 71.24z"/>
   <path fill="#FEFEFE" 
   d="M143.53 275.22l13.01 0 0 -40.26 15.38 36.03c2.08,5.43 0.87,4.23 14.35,4.23l0 -66.9 -12.39 0 0 40.88 -1.25 -2.46c-0.34,-0.8 -0.64,-1.7 -1.05,-2.66l-13.16 -31.45c-2.27,-5.37 0.51,-4.31 -14.89,-4.31l0 66.9z"/>
   <path fill="#FEFEFE" 
   d="M191.85 275.22l12.39 0 0 -40.26c0.08,0.12 0.19,0.18 0.22,0.39l12.77 29.36c0.76,1.74 1.43,3.3 2.23,5.2 0.85,2.02 1.69,3.47 2.12,5.31l12.39 0 0 -66.9 -12.39 0 0 39.65c-0.66,-0.77 -0.73,-0.83 -1.24,-1.86 -0.45,-0.9 -0.61,-1.57 -1.07,-2.65l-15.03 -35.14 -12.39 0 0 66.9z"/>
   <polygon fill="#FEFEFE" 
   points="138.57,189.74 152.2,189.74 152.2,160.62 170.17,160.62 170.17,189.74 183.18,189.74 183.18,118.5 170.17,118.5 170.17,148.85 152.2,148.85 152.2,118.5 138.57,118.5 "/>
   <path fill="#FEFEFE" 
   d="M235.83 179.21c-6.8,0 -9.91,-3.81 -9.91,-11.77 0,-9.05 -1.43,-29.45 2.09,-35.08 3.88,-6.22 16.49,-4.21 16.49,8.44 0,6.13 -0.19,28.78 -1.91,33.4 -0.92,2.48 -3.4,5.01 -6.76,5.01zm-22.3 -38.41l0 26.02c0,30.77 42.8,31.84 44.49,-0.11 0.05,-0.85 -0.12,-1.9 -0.14,-2.53l0.25 -22.76c0,-10.29 -7.42,-23.54 -20.44,-23.54 -7.19,0 -13.64,0.46 -18.23,7.17 -2.67,3.9 -5.93,9.58 -5.93,15.75z"/>
   <polygon fill="#FEFEFE" 
   points="50.61,275.84 63,275.84 63,248.58 80.96,248.58 80.96,275.84 93.35,275.84 93.35,208.94 80.96,208.94 80.96,237.43 63,237.43 63,208.94 50.61,208.94 "/>
   <path fill="#FEFEFE" 
   d="M64.24 138.32c0.07,3.41 1.74,9.08 2.42,12.45 0.76,3.79 2.22,8.52 2.53,12.33l-11.15 0 5.46 -23.04c0.9,-2.7 -0.67,1.61 0.34,-0.9l0.4 -0.84zm-25.4 51.42l13.63 0c0.11,-4.92 2.48,-9.72 2.48,-14.87l16.72 0c0.11,4.72 2.11,10.38 2.48,14.87l13.01 0c-0.06,-2.74 -1.24,-6.2 -1.86,-8.68l-15.49 -62.56 -13.62 0 -17.35 71.24z"/>
   <path fill="#FEFEFE" 
   d="M92.11 137.08c0,5.48 0.43,8.89 3.61,13.12 4.05,5.4 13.49,8.63 17.67,10.83 6.08,3.2 5.98,5.91 5.98,11.98 0,6.23 -9.07,7.05 -12.8,4.13 -2.83,-2.22 -3.31,-6.48 -3.31,-10.32l-13 0c0,29.95 42.12,31.91 42.12,3.71 0,-25 -27.88,-19.69 -27.88,-32.83 0,-11.46 11.28,-10.16 13.67,-4.99 3.64,7.86 -4.07,6.85 13.59,6.85 4.42,0 -1.21,-11.84 -3.45,-15.13 -8.68,-12.74 -36.2,-8.31 -36.2,12.65z"/>
   <polygon fill="#FEFEFE" 
   points="208.57,102.39 253.17,102.39 253.17,90.01 222.82,90.01 222.82,6.38 208.57,6.38 "/>
   <path fill="#FEFEFE" 
   d="M118.75 226.9c0,2.53 4.18,21.32 4.96,22.92l-10.53 0c0.85,-1.77 2,-9.07 2.52,-11.71 0.37,-1.81 0.79,-3.88 1.14,-5.69 1.21,-6.35 0.12,-4.2 1.91,-5.52zm-22.92 48.32l12.39 0c0.02,-1.11 2.49,-12.88 2.79,-13.32 1.15,-1.7 2.25,-0.96 7.12,-0.93 2.68,0.02 5.37,0 8.05,0l3.1 14.25 12.39 0 -15.69 -63.6c-1.01,-4.31 0.73,-3.3 -14.04,-3.3 -0.09,3.94 -2.85,12.36 -3.85,16.6 -1.31,5.56 -2.73,11.56 -4.08,16.98 -1.42,5.68 -2.65,10.58 -4.09,16.35l-4.09 16.97z"/>
   <path fill="#FEFEFE" 
   d="M240.78 275.22l35.31 0 0 -10.53 -22.92 0 0 -18.58 19.83 0c0,-14.36 3.99,-11.15 -19.83,-11.15l0 -16.11 22.92 0 0 -10.53 -35.31 0 0 66.9z"/>
   <path fill="#FEFEFE" 
   d="M6.01 228.14l0 27.88c0,8.49 6.61,20.44 16.73,20.44 14.84,0 23.53,-5.66 23.53,-22.3l-13 -0.62c0,4.78 -0.16,13.08 -8.85,11.34 -5.14,-1.03 -6.02,-5.55 -6.02,-11.34 0,-7.06 -0.84,-25.69 1.22,-30.99 2.71,-6.97 10.5,-5.38 12.68,-0.87 1.4,2.89 0.97,3.67 0.97,7.7l12.38 0c0,-11.01 -5.82,-22.3 -16.72,-22.3 -6.74,0 -13.24,0.43 -17.73,6.43 -2.31,3.1 -5.19,9.54 -5.19,14.63z"/>
   <path fill="#FEFEFE" 
   d="M8.49 189.74l13.01 0 0 -29.12 19.2 0c2.96,0 1.86,-4.15 1.86,-11.77l-21.06 0 0 -17.34c0,-1.43 0.43,-1.86 1.85,-1.86l22.92 0 0 -11.15 -37.78 0 0 71.24z"/>
   <polygon fill="#FEFEFE" 
   points="281.67,275.22 315.74,275.22 315.74,264.69 294.68,264.69 294.68,208.32 281.67,208.32 "/>
   <polygon fill="#FEFEFE" 
   points="191.85,189.74 204.86,189.74 204.86,118.5 191.85,118.5 "/>
  </g>
 </g>
</svg>
